<?xml version="1.0" encoding="UTF-8" standalone="no"?>
<!DOCTYPE svg PUBLIC "-//W3C//DTD SVG 1.1//EN" "http://www.w3.org/Graphics/SVG/1.1/DTD/svg11.dtd">
<svg width="100%" height="100%" viewBox="0 0 240 160" version="1.1" xmlns="http://www.w3.org/2000/svg" xmlns:xlink="http://www.w3.org/1999/xlink" xml:space="preserve" xmlns:serif="http://www.serif.com/" style="fill-rule:evenodd;clip-rule:evenodd;stroke-linejoin:round;stroke-miterlimit:2;">
    <g transform="matrix(1,0,0,1,-0,-25.250945)">
        <g id="campsite" transform="matrix(0.299088,0,0,0.333988,-0.51719,24.27981)">
            <path d="M780.966,186.5C766.284,188.04 683.778,217.35 675.423,220.318C653.972,227.938 661.762,253.196 652.457,254.002C642.531,254.863 647.219,237.483 646.919,234.396C646.413,229.18 638.626,239.949 635.317,231.577C629.09,215.822 614.256,193.395 609.349,183.577C560.725,86.273 558.233,71.951 544.684,28.426C542.266,20.658 538.537,15.871 546.556,17.079C633.42,30.164 683.567,-1.687 687.523,3.48C691.813,9.086 685.042,19.29 731.332,104.602C769.751,175.41 779.978,172.335 780.966,186.5ZM657.504,208.968C637.26,212.355 663.42,225.395 666.65,217.575C669.633,210.353 658.502,209.082 657.504,208.968ZM225.5,45.034C260.533,44.956 262.555,40.559 262.406,43.51C262.037,50.794 238.196,120.048 225.683,147.577C204.362,194.483 168.123,262.314 167.488,262.342C166.46,262.387 164.064,260.656 160.552,260.983C156.356,261.374 163.959,276.902 154.5,276.901C148.657,276.901 147.037,262.783 140.319,247.574C136.711,239.406 162.282,243.138 155.215,235.78C152.489,232.942 138.644,229.256 137.634,241.5C136.871,250.756 131.934,244.336 104.576,235.314C28.028,210.072 24.792,210.83 26.315,207.427C31.977,194.772 79.974,142.751 115.686,35.576C117.772,29.313 117.007,25.679 123.577,28.317C131.244,31.397 164.428,44.723 225.5,45.034ZM321.837,448.676C311.444,467.551 299.653,486.299 266.437,478.752C260.421,477.385 232.995,445.078 228.28,439.72C151.862,352.869 140.192,349.007 142.63,332.516C143.887,324.016 144.095,311.217 166.404,296.336C184.885,284.008 201.664,295.202 204.178,296.88C209.275,300.28 305.559,401.496 314.29,410.674C328.088,425.179 324.432,439.992 323.794,442.578C323.671,443.076 323.609,442.945 321.837,448.676ZM269.497,471.506C304.932,483.042 336.045,429.788 303.378,414.782C283.533,405.665 234.293,445.349 269.497,471.506ZM270.541,434.522C271.323,433.354 275.533,427.064 283.794,422.984C290.025,419.907 298.517,420.411 299.424,420.744C334.315,433.561 280.912,487.694 266.923,460.295C260.62,447.948 270.099,435.387 270.541,434.522ZM301.524,446.513C309.805,421.169 284.624,420.267 271.912,444.714C270.817,446.82 271.047,481.219 301.524,446.513ZM288.354,434.051C308.242,429.643 289.564,461.833 279.262,452.806C270.494,445.123 286.937,434.929 288.354,434.051ZM289.594,445.55C291.097,440.744 290.528,438.906 285.537,439.666C279.653,440.562 282.521,453.712 289.594,445.55ZM270.707,394.131C288.694,401.362 238.564,354.546 219.946,334.115C219.195,333.292 204.222,316.861 207.721,327.43C209.427,332.58 265.528,388.93 270.707,394.131ZM166.482,308.533C166.108,308.358 158.28,304.699 161.67,310.395C164.716,315.514 201.216,352.863 201.697,353.154C223.285,366.189 170.905,311.472 166.482,308.533ZM222.544,375.47C245.458,399.787 266.29,425.72 264.62,413.49C264.228,410.621 212.544,353.317 218.479,369.506C219.786,373.073 220.134,372.651 222.544,375.47ZM244.632,431.247C259.766,436.555 224.35,402.758 217.709,396.317C184.499,364.105 228.9,418 244.632,431.247ZM176.216,350.711C175.247,349.698 174.407,348.568 173.437,347.555C146.727,319.651 174.817,359.944 192.598,376.401C227.131,408.36 177.829,352.538 176.216,350.711ZM543.658,220.5C539.491,210.351 533.43,152.515 530.921,132.444C528.38,112.119 528.204,111.033 526.657,111.719C524.876,112.508 506.494,211.038 496.45,208.922C449.621,199.054 446.633,201.257 446.998,196.543C447.434,190.91 451.433,192.781 482.331,135.397C507.862,87.983 527.075,34.46 530.319,25.426C534.553,13.629 536.656,34.922 545.318,56.577C546.511,59.561 562.654,114.058 610.332,202.602C626.347,232.345 634.955,238.727 624.55,238.074C615.396,237.499 553.655,224.768 543.658,220.5ZM275.966,139.5C273.074,158.888 266.523,242.885 259.577,245.65C256.013,247.07 178.094,266.633 176.42,264.565C175.521,263.454 247.544,140.574 268.938,48.556C271.56,37.279 288.361,99.752 318.669,152.397C320.546,155.658 319.846,156.009 341.332,193.602C354.383,216.439 364.271,221.515 351.574,224.685C345.303,226.25 308.059,232.902 307.425,232.655C299.541,229.581 282.286,151.009 281.001,137.542C279.533,122.17 276.053,139.077 275.966,139.5ZM624.966,302.5C625.053,336.565 622.784,336.335 623.963,370.493C624.411,383.469 621.992,389.509 599.542,393.999C570.031,399.901 537.089,391.147 537.037,374.507C536.786,295.027 536.848,293.006 545.602,287.668C565.83,275.336 621.698,278.651 624.921,298.444C625.139,299.778 624.748,301.165 624.966,302.5ZM616.034,319.5C614.303,301.085 613.51,300.77 614.741,299.779C629.862,287.613 559.86,282.775 549.739,291.784C533.111,306.586 576.567,314.179 597.574,307.684C615.318,302.198 608.331,314.786 613.978,332.323C616.808,341.113 615.636,330.071 616.034,319.5ZM579.5,303.968C555.042,302.148 555.117,297.858 556.467,296.468C558.464,294.414 589.069,305.109 584.639,295.434C584.59,295.327 580.104,292.441 583.534,292.677C585.002,292.778 616.982,294.978 599.577,301.683C594.272,303.726 593.142,303.855 592.556,303.921C586.003,304.667 586.164,303.209 579.5,303.968ZM329.034,372.5C330.204,347.503 356.73,356.615 364.22,349.22C365.447,348.009 365.561,345.611 345.423,338.683C342.508,337.68 326.269,328.656 346.74,310.78C351.462,306.658 359.739,312.89 378.574,318.315C402.6,325.236 402.192,334.039 424.576,326.686C463.354,313.947 480.841,301.694 487.683,318.423C496.927,341.027 468.732,342.837 463.759,347.712C459.384,352.002 508.248,352.451 496.681,380.574C486.837,404.511 452.75,379.097 416.574,367.316C413.363,366.27 413.104,366.562 376.423,380.318C366.267,384.126 331.255,404.676 329.034,372.5ZM491.034,372.5C489.786,358.097 479.024,364.044 476.319,370.426C472.197,380.148 489.273,392.831 491.034,372.5ZM353.034,374.5C351.358,359.902 341.082,364.464 340.739,364.784C328.009,376.631 351.226,393.662 353.034,374.5ZM424.034,282.5C423.672,279.689 423.004,273.249 422.921,272.444C422.545,268.822 411.985,243.618 408.999,258.542C405.79,274.582 397.504,270.65 393.316,286.426C389.657,300.207 395.367,307.739 394.927,309.602C393.95,313.735 349.53,291.585 382.331,236.397C387.969,226.911 384.504,244.26 387.512,244.373C388.596,244.413 412.439,219.473 406.684,196.426C406.205,194.505 403.709,187.791 409.398,191.667C430.534,206.068 430.893,240.977 433.343,249.585C436.387,260.283 440.14,222.624 445.65,236.423C452.331,253.151 471.708,273.821 440.262,305.261C428.849,316.671 439.636,288.641 434.216,282.739C430.679,278.887 430.04,281.794 427.529,286.525C424.706,291.843 424.065,282.925 424.034,282.5ZM788.034,190.5C785.668,176.695 791.189,150.831 803.217,162.783C807.233,166.773 797.467,198.908 793.577,200.65C784.89,204.543 787.778,194.188 788.034,190.5ZM2.034,193.5C2.079,192.925 -1.005,187.889 11.504,186.098C16.065,185.444 23.823,226.586 18.448,227.017C6.935,227.939 7.006,212.123 2.034,193.5Z"/>
        </g>
    </g>
</svg>
