<?xml version="1.0" encoding="UTF-8" standalone="no"?>
<!DOCTYPE svg PUBLIC "-//W3C//DTD SVG 1.1//EN" "http://www.w3.org/Graphics/SVG/1.1/DTD/svg11.dtd">
<svg width="100%" height="100%" viewBox="0 0 180 210" version="1.1" xmlns="http://www.w3.org/2000/svg" xmlns:xlink="http://www.w3.org/1999/xlink" xml:space="preserve" xmlns:serif="http://www.serif.com/" style="fill-rule:evenodd;clip-rule:evenodd;stroke-linejoin:round;stroke-miterlimit:2;">
    <g transform="matrix(1,0,0,1,-30.234495,0)">
        <g id="dead_tree" transform="matrix(0.462832,0,0,0.462832,29.097892,-1.216182)">
            <path d="M133.024,398.5C136.365,402.072 136.382,401.988 138.962,406.198C141.217,409.878 143.803,395.562 146.669,398.329C147.129,398.773 144.955,401.706 146.978,409.441C147.731,412.317 157.716,409.64 158.999,399.542C159.258,397.501 163.763,389.411 166.423,388.35C171.084,386.489 169.375,385.01 171.318,380.426C172.711,377.141 172.653,377.166 172.999,373.542C173.34,369.973 173.974,370.137 174.032,366.504C174.094,362.631 171.707,362.651 173.684,356.574C174.918,352.785 173.851,352.208 178.219,347.259C181.376,343.683 178.277,340.739 179.318,338.426C181.361,333.885 181.247,333.781 184.214,331.221C184.503,330.972 186.523,322.938 183.686,314.424C180.819,305.823 181.325,305.754 181.001,301.542C180.97,301.135 180.602,301.314 180.001,296.542C179.745,294.509 172.174,276.207 170.605,275.336C163.737,271.524 162.311,272.884 157.668,264.397C155.543,260.514 141.552,259.486 140.074,250.546C139.425,246.623 145.091,249.037 144.312,246.551C130.554,202.616 108.598,223.087 107.332,225.397C106.151,227.554 107.341,229.216 96.574,233.682C90.858,236.052 91.825,231.155 84.424,228.686C75.436,225.687 73.525,229.8 67.551,230.995C65.361,231.433 64.546,234.821 61.22,239.26C57.621,244.061 58.428,244.469 58.999,250.458C59.165,252.193 59.939,251.972 60.032,255.496C60.153,260.047 52.299,267.569 52.992,261.536C53.089,260.693 55.909,256.318 54.681,253.426C53.027,249.531 53.639,247.34 49.573,248.684C47.282,249.441 42.286,247.435 37.271,251.215C36.153,252.058 32.976,253.519 32.591,253.696C27.483,256.044 32.546,245.537 37.444,245.079C57.787,243.176 52.582,231.363 58.463,225.463C62.199,221.716 64.053,221.656 62.223,219.728C57.282,214.523 56.521,213.6 53.551,213.005C50.783,212.451 51.883,210.423 45.576,208.314C39.606,206.319 39.586,204.728 33.574,206.685C18.587,211.564 17.609,210.292 16.78,209.215C13.643,205.138 13.646,204.702 8.543,204.002C4.576,203.458 0.498,194.659 3.484,196.076C4.994,196.792 19.396,203.625 23.426,202.312C33.05,199.177 33.082,199.11 37.739,194.784C40.303,192.401 40.565,195.416 53.449,197.995C56.584,198.623 63.015,209.316 69.428,207.313C73.892,205.919 79.085,210.624 79.739,211.216C80.361,211.78 88.541,213.967 91.574,212.681C93.289,211.954 93.125,211.829 98.732,207.78C100.555,206.464 101.993,206.212 100.245,204.742C96.312,201.434 97.611,200.522 94.781,196.269C90.321,189.565 86.857,192.204 84.314,184.576C82.342,178.66 84.42,178.766 85.651,175.577C90.056,164.166 85.674,160.968 83.261,158.784C81.616,157.296 79.718,159.221 72.261,152.784C72.212,152.742 59.082,150.869 62.451,147.453C63.324,146.567 66.625,147.712 66.877,146.734C67.708,143.506 62.576,132.113 62.219,131.741C58.664,128.022 57.178,128.132 58.405,126.424C58.722,125.983 62.858,125.515 64.261,126.784C69.07,131.133 66.672,132.612 71.331,139.603C75.94,146.518 74.826,149.408 83.45,150.996C84.103,151.116 93.871,155.536 90.314,144.574C89.198,141.135 91.754,138.618 93.311,141.604C95.287,145.393 96.66,145.292 95.316,149.427C92.886,156.899 101.802,157.226 97.686,169.576C97.213,170.994 92.967,183.734 102.425,187.65C103.179,187.962 106.201,187.716 107.668,190.397C112.068,198.44 113.353,197.917 122.5,197.965C125.578,197.981 125.828,198.149 127.779,195.742C130.977,191.794 139.211,196.349 140.22,197.741C144.292,203.359 144.059,203.82 150.577,206.35C154.857,208.011 153.503,209.291 155.319,213.574C156.712,216.861 156.653,216.836 156.999,220.458C157.269,223.287 163.252,234.188 164.42,234.649C172.887,237.988 174.412,237.363 179.332,245.603C181.789,249.719 184.57,246.067 189.262,250.739C191.484,252.952 194.771,258.478 195.089,252.443C195.131,251.638 195.737,251.756 196.998,242.543C197.536,238.612 204.629,236.374 197.785,227.271C197.105,226.367 198.366,225.977 194.315,213.574C193.883,212.25 190.982,203.368 196.219,196.269C197.433,194.624 197.429,194.432 199.483,194.373C200.331,194.349 207.249,180.686 203.782,176.27C196.235,166.658 201.023,160.986 191.602,155.332C186.281,152.138 186.333,152.011 183.35,146.575C182.35,144.754 184.042,134.878 182.315,129.574C181.353,126.619 182.119,126.368 179.785,123.271C179.53,122.933 179.655,122.919 177.345,118.575C175.779,115.631 180.526,115.176 178.223,112.728C172.683,106.84 172.616,106.868 169.682,99.423C165.717,89.36 156.533,96.226 155.079,85.556C154.938,84.522 155.205,84.523 154.962,72.505C154.826,65.826 160.71,74.606 160.921,76.44C161.487,81.366 161.831,81.628 166.421,83.666C171.58,85.956 167.715,70.47 174.742,64.779C178.764,61.521 176.091,60.32 177.318,57.426C179.802,51.57 178.979,51.344 176.649,45.42C175.413,42.279 172.242,44.228 171.004,37.55C169.641,30.195 158.033,25.392 159.294,20.403C159.738,18.647 164.648,21.243 164.919,18.604C166.016,7.909 160.463,8.662 161.062,3.176L161.542,2.628C167.443,5.006 167.09,5.882 170.314,15.576C172.312,21.582 170.009,27.185 177.577,30.317C187.517,34.431 185.117,44.368 188.707,50.39C193.139,57.823 196.223,38.628 198.683,44.383C199.581,46.484 198.478,46.693 199.685,50.426C201.575,56.275 192.017,60.704 191.35,62.423C187.302,72.852 189.127,75.318 187.682,78.574C183.836,87.235 183.33,87.932 188.332,97.602C191.539,103.803 195.436,101.292 196.65,104.423C203.077,120.983 196.771,123.274 203.216,130.739C203.698,131.297 204.23,134.528 206.397,135.668C214.252,139.8 215.55,139.105 218.316,147.574C220.279,153.588 221.579,152.85 224.691,158.394C226.725,162.018 227.245,157.78 232.577,155.65C235.05,154.663 235.276,150.518 235.318,150.426C239.699,140.837 240.606,141.003 241.079,130.444C241.157,128.685 242.293,128.49 243.077,123.439C243.929,117.955 248.826,115.985 249.577,115.682C252.423,114.537 261.997,103.522 266.998,109.087C268.346,110.587 281.727,110.643 283.261,109.216C290.11,102.844 287.83,99.883 290.78,96.74C295.644,91.561 296.669,90.894 293.315,80.574C292.539,78.183 294.609,73.345 290.785,68.271C290.235,67.542 289.105,64.113 289.329,63.453C291.538,56.952 290.959,56.765 291.42,56.399C294.318,54.102 293.975,65.405 297.288,62.24C306.855,53.103 303.363,51.038 305.318,46.426C307.499,41.282 309.58,42.587 310.659,40.602C310.878,40.198 313.402,35.553 314.581,36.399C317.209,38.286 309.126,49.642 309.08,50.44C308.567,59.307 307.88,59.328 301.781,65.741C298.409,69.286 300.996,75.771 301.318,76.577C302.468,79.459 302.449,79.404 302.948,82.45C303.716,87.136 316.517,75.559 316.537,75.536C317.659,74.234 316.975,73.725 320.256,71.184C325.068,67.457 321.393,74.293 322.465,75.529C324.904,78.341 334.288,74.216 330.258,78.269C326.8,81.747 320.581,80.064 320.45,80.078C317.043,80.463 315.042,84.767 307.397,89.332C302.525,92.241 303.717,100.43 301.22,103.26C300.698,103.85 291.549,114.214 300.457,113.071C305.808,112.385 302.446,117.543 299.577,118.651C294.861,120.471 291.565,119.765 290.78,120.785C283.263,130.559 279.198,119.855 266.426,124.316C255.224,128.228 258.813,138.122 257.682,140.574C253.67,149.271 252.609,148.983 252.004,158.463C251.289,169.662 253.082,171.518 243.398,177.332C239.834,179.471 232.26,185.862 233.687,190.428C235.316,195.644 227.187,207.186 227.079,208.444C226.475,215.45 230.363,224.645 233.668,218.603C233.989,218.016 240.002,207.022 240.923,214.444C241.194,216.625 239.516,221.807 239.316,222.426C239.081,223.15 239.04,227.876 238.65,228.575C232.367,239.853 240.985,240.708 239.001,252.458C238.351,256.313 236.381,255.611 236.079,259.444C235.346,268.751 233.6,268.323 231.941,277.495L234.582,279.261C238.537,283.351 238.58,293.879 240.51,294.001C241.095,294.038 249.811,289.591 251.077,281.439C251.657,277.709 259.865,268.843 264.572,270.313C271.834,272.581 283.593,254.585 291.575,257.319C294.107,258.186 295.292,261.916 297.543,262.001C306.442,262.339 306.586,260.947 311.335,253.394C312.467,251.594 319.568,253.001 321.079,238.444C321.345,235.88 321.763,235.996 321.635,233.5C321.591,232.634 324.216,223.722 325.781,221.731C329.203,217.379 329.39,215.591 328.921,205.444C328.896,204.907 324.297,191.891 325.318,189.426C326.914,185.574 326.373,184.568 330.594,183.914C331.112,183.834 331.059,183.842 335.216,179.261C337.341,176.919 339.51,151.6 347.544,152.065C353.117,152.388 340.619,160.756 344.685,172.426C348.187,182.479 327.936,185.562 337.669,201.397C339.798,204.862 338.018,213.135 341.575,211.694C346.474,209.71 346.33,209.332 351.556,208.921C353.184,208.793 360.28,204.297 361.295,202.389C366.864,191.912 368.541,192.339 369.079,180.444C369.187,178.047 372.12,174.985 373.534,176.463C375.182,178.184 375.561,178.798 377.261,177.221C382.625,172.247 380.843,168.084 388.453,165.245C393.812,163.246 386.169,171.334 385.783,171.743C384.378,173.231 383.426,178.92 379.397,181.332C372.484,185.47 373.144,194.918 371.683,198.577C371.469,199.112 369.083,205.086 370.394,205.669C374.943,207.689 384.236,200.464 379.669,208.603C378.513,210.663 375.055,211.971 374.458,212.001C365.983,212.424 364.514,209.642 359.221,216.258C356.626,219.502 350.005,219.626 347.398,221.332C341.259,225.346 336.765,227.425 335.921,235.556C335.782,236.903 334.605,237.755 335.079,241.561C335.362,243.826 338.7,244.268 337.691,246.574C334.386,254.132 330.565,252.37 329.921,260.556C329.484,266.108 328.236,265.682 323.397,268.332C314.368,273.278 329.092,276.361 329.664,277.394C330.446,278.806 330.814,285.736 346.577,279.651C352.064,277.532 355.413,266.557 364.608,268.075C369.524,268.887 361.83,273.096 361.397,273.332C360.091,274.047 351.442,283.126 354.371,284.67C357.244,286.184 357.238,286.114 360.51,286.095C363.015,286.08 366.93,290.821 362.457,291.006C349.611,291.538 349.475,287.631 341.424,290.314C336.05,292.106 336.747,293.113 334.26,295.217C332.088,297.054 331.84,295.559 320.395,290.664C319.368,290.225 316.28,281.217 305.574,284.685C297.786,287.207 291.667,279.766 287.27,283.218C287.043,283.396 286.936,283.208 284.269,285.22C281.069,287.634 281.618,293.195 268.395,299.336C263.864,301.44 266.788,312.737 261.261,318.262C256.032,323.489 250.064,328.159 250.037,332.493C249.999,338.505 250.057,338.423 250.035,344.5C250.026,346.919 246.07,366.131 248.785,368.22C253.398,371.768 252.446,372.47 255.669,377.397C256.236,378.264 259.882,387.561 259.921,388.444C260.105,392.525 260.577,392.522 259.315,396.426C258.408,399.235 263.34,414.509 267.349,404.423C268.57,401.353 273.635,395.932 274.261,395.261L276.738,392.738C277.441,392.102 289.112,381.536 287.354,387.46C286.443,390.528 282.788,389.665 277.316,406.426C275.993,410.477 275.469,417.526 278.545,414.555C282.712,410.528 282.499,410.408 284.397,409.331C285.291,408.825 295.455,402.759 294.75,406.569C294.568,407.555 290.197,409.585 285.754,419.589C284.382,422.68 288.569,420.736 291.73,423.218C292.922,424.154 302.241,429.151 299.836,430.934C297.777,432.461 290.35,426.839 281.575,431.65C277.261,434.015 271.352,430.776 270.575,430.35C267.929,428.899 261.632,431.918 261.556,431.921C254.645,432.188 252.749,430.77 253.263,433.565C253.319,433.873 258.16,437.857 256.533,439.532C254.09,442.045 243.64,438.661 242.574,438.316C237.701,436.738 230.206,440.657 225.27,436.782C216.109,429.589 216.083,429.62 215.779,429.258C214.34,427.544 214.103,425.924 212.742,427.755C209.754,431.776 209.837,431.877 205.394,434.336C202.808,435.767 205.945,439.169 199.577,441.683C191.156,445.007 191.023,447.721 182.573,444.315C181.356,443.825 171.747,446.029 169.78,448.742C164.028,456.678 162.288,453.966 152.5,453.966C144.828,453.966 144.705,453.09 137.586,455.735C131.295,458.072 138.917,449.746 142.423,448.349C150.715,445.045 147.164,436.966 156.423,433.317C162.237,431.027 162.949,433.57 168.397,430.331C172.124,428.115 171.577,427.298 175.577,425.684C182.329,422.958 178.739,414.982 183.59,408.546C189.057,401.294 181.317,407.968 181.192,408.118C176.813,413.38 176.106,421.459 172.576,422.68C169.051,423.899 169.043,423.815 166.261,426.216C163.082,428.96 152.533,426.231 149.426,427.316C142.058,429.889 140.595,433.761 136.556,433.921C134.926,433.986 117.186,434.691 116.164,433.934C115.069,433.122 116.121,432.13 119.74,428.78C123.121,425.651 127.652,425.454 123.611,423.33C110.325,416.347 97.319,422.955 104.738,416.776C105.511,416.131 114.243,411.756 117.458,411.999C119.666,412.166 119.829,413.551 127.451,414.996C128.497,415.194 133.838,418.764 132.471,415.507C129.827,409.208 124.332,395.753 119.079,390.735C117.594,389.316 119.514,388.125 122.622,390.293C126.784,393.198 127.011,392.779 130.739,396.261L133.024,398.5ZM232.966,392.5C233.612,401.924 233.514,402.157 237.195,406.768C237.621,407.301 242.137,416.664 243.024,413.338C243.253,412.477 238.176,402.331 237.708,401.396C235.18,396.346 238.998,387.593 239.038,383.5C239.154,371.713 235.269,372.275 235.175,360.5C235.172,360.179 235.122,353.904 233.019,357.112C232.547,357.832 232.968,368.508 233.007,369.498C233.108,372.058 237.024,382.299 234.65,386.575C233.126,389.317 233.264,389.335 232.966,392.5ZM188.966,362.5C188.703,380.188 177.057,387.284 181.477,387.571C183.72,387.717 193.261,372.451 193.968,358.505C194.366,350.662 202.754,346.685 202.921,342.556C203.371,331.428 204.344,331.333 201.405,320.539C201.278,320.074 201.64,306.113 199.019,310.112C197.534,312.378 200.778,330.112 199.678,333.571C198.709,336.616 199.109,342.183 196.219,345.259C195.359,346.175 190.125,349.006 188.966,362.5ZM282.39,447.708C282.978,448.296 283.559,447.709 284.292,449.61C286.271,454.738 282.35,453.52 280.426,454.319C273.454,457.212 273.067,457.037 266.396,453.706C263.042,452.031 248.838,456.626 251.309,450.426C253.808,444.152 258.235,447.053 260.261,445.216C261.116,444.441 269.921,436.46 274.668,444.397C276.985,448.269 278.211,446.174 282.39,447.708ZM79.855,446.042C80.087,445.64 79.526,445.055 79.758,444.654C79.882,444.439 82.05,442.516 82.397,442.332C88.142,439.282 88.044,439.21 92.739,434.784C94.533,433.092 101.046,434.233 102.217,435.783C104.798,439.198 105.244,438.781 109.56,439.079C115.476,439.489 114.841,450.089 107.426,447.685C102.948,446.233 102.83,445.874 98.574,447.682C96.805,448.433 85.77,448.157 79.855,446.042ZM323.5,435.966C322.238,435.896 308.233,435.12 308.071,432.541C307.947,430.584 320.509,423.124 322.271,424.778C325.709,428.006 325.218,428.608 329.577,430.35C330.885,430.872 332.585,433.32 331.536,434.53C329.391,437.002 328.819,435.717 323.5,435.966Z"/>
        </g>
    </g>
</svg>
