<?xml version="1.0" encoding="UTF-8" standalone="no"?>
<!DOCTYPE svg PUBLIC "-//W3C//DTD SVG 1.1//EN" "http://www.w3.org/Graphics/SVG/1.1/DTD/svg11.dtd">
<svg width="100%" height="100%" viewBox="0 0 240 166" version="1.1" xmlns="http://www.w3.org/2000/svg" xmlns:xlink="http://www.w3.org/1999/xlink" xml:space="preserve" xmlns:serif="http://www.serif.com/" style="fill-rule:evenodd;clip-rule:evenodd;stroke-linejoin:round;stroke-miterlimit:2;">
    <g transform="matrix(1,0,0,1,-0,-22.468191)">
        <g id="fort" transform="matrix(0.328145,0,0,0.391024,-0.577437,21.698917)">
            <path d="M397.261,310.739C393.264,307.627 380.755,294.682 359.556,298.921C304.38,309.956 326.407,381.312 321.079,412.444C320.201,417.572 324.812,422.998 318.496,423.032C269.277,423.3 268.417,425.58 265.483,422.517C264.137,421.111 264.963,194.331 265.036,174.489C265.04,173.375 265.049,170.871 278.504,170.968C374.193,171.654 465.195,169.51 468.524,172.48C469.465,173.32 468.369,404.576 470.904,420.505C471.613,424.965 468.2,422.86 414.505,423.034C410.328,423.047 411.965,406.91 411.965,404.5C411.972,332.13 413.945,330.221 400.738,314.262L397.261,310.739ZM319.034,206.5C317.244,185.837 296.948,198.746 296.968,206.504C297.034,232.316 297.125,233.048 297.351,233.579C298.294,235.802 316.33,234.964 316.507,234.963C318.793,234.956 322.1,234.443 319.034,206.5ZM414.966,208.5C414.974,219.867 413.643,234.952 417.488,234.965C419.024,234.97 436.849,235.774 436.918,233.604C437.264,222.794 441.645,185.883 418.397,199.332C414.646,201.502 416.144,202.474 414.966,208.5ZM355.966,209.5C355.977,217.714 354.734,234.837 358.439,234.921C360.406,234.965 377.85,235.757 377.918,233.604C378.331,220.705 381.258,195.088 365.542,195.999C358.526,196.406 356.22,208.2 355.966,209.5ZM135.966,422.5C131.238,423.523 107.503,422.679 11.505,423.034C3.345,423.065 8.548,418.704 9.079,410.444C9.433,404.931 12.998,349.448 13.034,341.5C13.113,324.21 18.919,220.7 20.081,184.396C20.126,183.009 30.58,183.032 31.5,183.034C122.428,183.239 124.941,181.79 124.965,185.488C125.167,216.042 135.647,419.514 135.966,422.5ZM724.966,422.5C720.256,423.519 697.069,422.68 601.505,423.034C594.534,423.06 598.566,419.357 599.079,412.444C603.269,355.901 608.002,216.526 609.983,184.552C610.173,181.478 713.324,183.298 713.517,183.483C713.764,183.72 724.911,393.971 724.966,422.5ZM255.966,317.5C255.966,368.079 256.456,367.899 257.032,418.496C257.095,424.029 253.819,422.966 188.5,422.966C148.464,422.966 144.105,423.129 144.034,422.5C141.85,403.041 145.025,403.04 143.001,383.542C140.952,363.802 139.774,297.679 138.315,291.574C137.092,286.452 137.04,257.468 137.034,254.5C137.03,251.935 136.998,234.342 135.095,222.495C134.282,217.432 144.927,224.904 144.963,217.507C145.016,206.851 141.654,205.044 147.425,202.319C148.963,201.592 165.813,201.046 165.921,204.439C165.966,205.846 166.435,220.657 169.425,221.681C170.622,222.091 184.75,226.931 184.921,218.556C185.153,207.151 180.16,200.641 191.458,201.999C203.006,203.387 206.848,203.201 206.921,206.444C207.178,217.807 202.996,221.916 210.493,221.963C211.663,221.97 224.865,222.053 224.921,219.561C225.18,208.018 220.842,201.808 232.444,202.921C236.469,203.307 250.031,200.052 248.001,208.458C247.766,209.434 245.051,220.678 249.439,220.921C259.201,221.461 255.948,225.661 255.966,235.5L255.966,317.5ZM589.966,422.5C585.35,423.498 574.24,422.691 481.505,423.034C478.217,423.047 479.034,421.748 479.034,418.5C479.034,230.979 479.027,225.093 479.081,223.396C479.166,220.757 489.278,224.206 487.921,217.444C483.823,197.022 495.578,203.129 503.507,202.963C505.558,202.92 509.008,200.915 509.035,206.5C509.079,215.962 504.281,219.69 513.542,222.001C528.193,225.657 528.037,219.45 529.079,204.439C529.381,200.088 552.003,200.434 550.673,206.546C549.321,212.762 547.662,212.861 550.319,218.574C554.101,226.708 556.647,222.162 565.561,221.921C569.088,221.825 568.196,203.784 568.351,203.421C568.984,201.93 569.534,202.437 588.594,203.086C591.516,203.185 589.898,207.175 590.037,218.507C590.097,223.392 594.658,221.662 596.575,222.319C601.772,224.1 595.993,261.155 595.966,273.5C595.914,296.408 593.981,310.719 593.968,311.504C593.347,347.885 590.097,383.87 589.966,422.5ZM246.034,162.5C246.497,150.994 249.166,151.789 263.259,141.219C336.877,86.006 362.016,76.33 362.032,69.496C362.093,43.789 361.3,2.401 364.396,2.082C373.511,1.142 370.281,6.225 372.483,8.517C374.709,10.833 383.953,3.668 405.577,12.317C408.81,13.611 417.283,19.807 436.574,14.684C441.265,13.439 444.174,11.66 443.079,16.444C442.546,18.774 444.389,48.519 441.581,49.65C412.903,61.195 376.674,28.554 372.079,51.444C371.638,53.641 371.966,67.096 371.999,68.457C372.214,77.282 486.924,143.873 487.921,156.444C488.01,157.561 488.693,166.177 475.542,163.001C463.882,160.186 250.391,163.442 246.034,162.5ZM609.5,173.966C584.818,169.38 591.908,155.614 590.968,105.504C590.86,99.78 613.824,100.832 613.921,104.439C614.346,120.28 614.965,128.174 629.578,121.648C634.129,119.616 629.301,102.052 634.488,102.035C635.851,102.03 651.065,101.98 651.52,102.476C655.564,106.888 648.624,121.899 655.488,121.965C656.568,121.975 668.871,122.093 668.918,120.604C669.058,116.238 668.944,111.868 668.965,107.5C669.016,97.294 674.239,102.099 684.5,102.034C685.103,102.031 691.874,101.988 691.919,103.396C692.346,116.738 687.621,120.153 696.426,122.684C698.501,123.281 708.947,124.244 708.964,119.511C709.012,106.229 706.78,104.989 710.61,102.707C711.771,102.015 731.951,100.127 731.965,104.488C732.109,147.775 738.353,163.438 720.577,172.651C717.604,174.192 717.381,173.966 609.5,173.966ZM21.5,173.966C-2.097,172.337 2.107,153.868 1.967,105.504C1.952,100.288 12.753,103.654 15.458,103.001C16.202,102.821 24.838,100.736 24.921,104.439C25.219,117.717 20.985,121.684 28.444,121.921C29.519,121.955 40.394,122.301 41.681,119.575C41.825,119.271 40.69,102.047 44.488,102.035C46.779,102.027 63.849,101.227 63.919,103.396C64.405,118.581 61.193,121.912 67.493,121.963C68.493,121.971 79.593,122.06 79.918,120.604C79.949,120.467 79.992,105.57 79.999,105.542C81.469,99.789 102.952,100.645 102.965,104.488C102.97,105.875 103.021,120.655 105.425,121.65C119.144,127.329 119.886,120.301 119.968,105.504C119.998,100.045 142.945,99.869 142.963,105.493C143.144,162.18 142.819,162.62 140.261,165.262C128.757,177.14 123.18,173.966 102.5,173.966L21.5,173.966ZM362.966,422.5C359.601,422.64 359.71,423.399 350.552,423.017C348.406,422.928 349.034,417.496 349.034,382.5C349.034,315.01 347.021,311.065 358.426,307.315C363.506,305.645 362.966,310.565 362.966,422.5ZM383.966,422.5C371.848,423.119 371.254,423.735 371.034,422.5C370.687,420.552 371.008,319.453 371.037,310.493C371.058,303.794 374.425,307.076 380.577,309.35C384.551,310.818 383.966,312.539 383.966,422.5ZM392.034,404.5C392.034,319.278 391.754,318.109 393.51,317.998C396.307,317.822 401.831,328.873 402.682,331.426C406.458,342.761 404.15,414.392 403.918,421.603C403.877,422.889 403.149,423.959 394.406,422.914C391.991,422.626 392.031,405.985 392.034,404.5ZM340.966,404.5C340.97,405.942 341.019,422.186 340.514,422.514C338.681,423.706 329.055,425.314 329.037,419.507C328.77,335.586 330.017,333.091 333.349,326.423C333.798,325.525 340.974,313.25 340.979,320.477L340.966,404.5Z"/>
        </g>
    </g>
</svg>
