<?xml version="1.0" encoding="UTF-8" standalone="no"?>
<!DOCTYPE svg PUBLIC "-//W3C//DTD SVG 1.1//EN" "http://www.w3.org/Graphics/SVG/1.1/DTD/svg11.dtd">
<svg width="100%" height="100%" viewBox="0 0 240 188" version="1.1" xmlns="http://www.w3.org/2000/svg" xmlns:xlink="http://www.w3.org/1999/xlink" xml:space="preserve" xmlns:serif="http://www.serif.com/" style="fill-rule:evenodd;clip-rule:evenodd;stroke-linejoin:round;stroke-miterlimit:2;">
    <g transform="matrix(1,0,0,1,-0.207737,-13.854201)">
        <g id="mausoleum" transform="matrix(0.43088,0,0,0.43088,-0.861759,7.621185)">
            <path d="M218.078,56.982C192.031,70.741 134.532,98.699 130.423,100.318C112.528,107.367 117.065,112.307 116.966,131.5C113.402,132.271 113.487,132.035 82.5,132.035C37.044,132.035 34.951,132.993 34.966,129.495C35.172,81.079 32.999,75.064 44.669,57.603C52.017,46.608 54.227,39.073 62.781,49.259C83.812,74.307 77.615,80.286 80.079,96.561C80.853,101.668 109.875,97.069 110.606,96.664C113.189,95.234 111.476,61.578 113.318,57.426C116.348,50.598 114.938,47.9 122.504,47.968C163.403,48.335 194.101,47.77 212.168,47.88C215.67,46.134 218.379,44.791 218.581,44.714C220.111,44.137 220.202,44.406 224.392,42.28C226.411,41.256 226.391,41.281 228.392,40.28C237.596,35.678 237.482,35.493 238.168,35.003C240.247,33.519 259.067,24.835 262.483,22.479C263.854,21.534 263.967,21.806 265.396,21.223C269.738,19.45 277.427,14.466 280.5,14.466C282.824,14.465 284.739,15.919 285.604,16.223C287.177,16.775 287.252,16.548 291.42,18.663C303.2,24.639 318.557,32.093 319.832,33.003C321.137,33.935 322.367,34.813 337.608,42.28C340.435,43.665 340.586,43.272 343.42,44.663C345.876,45.868 348.25,47.108 350.298,48.14C430.323,48.523 430.889,45.988 438.458,47.999C461.394,54.092 442.476,95.668 454.443,96.921C465.462,98.075 479.026,100.023 479.496,100.032C489.947,100.243 470.458,86.455 499.78,46.74C506.595,37.511 520.65,57.154 527.685,82.426C527.834,82.963 528.683,125.382 527.404,131.5C524.023,132.119 524.195,131.831 447.504,132.032C439.849,132.053 447.059,116.83 443.65,107.423C442.414,104.012 370.04,71.587 362.397,66.669C357.011,63.202 340.701,56.648 333.554,52.309C321.871,46.54 321.374,46.15 320.269,45.281C318.84,44.157 290.961,30.464 288.397,29.206C286.576,28.311 286.453,28.68 284.603,27.794C279.924,25.553 279.52,26.244 271.603,30.202C263.55,34.229 263.353,33.814 262.729,34.285C259.973,36.362 253.369,39.2 240.397,45.797C238.408,46.809 238.679,47.298 222.603,55.202C220.339,56.316 220.062,56.074 218.078,56.982ZM305.261,235.739C301.498,232.749 271.088,208.594 246.332,247.398C237.98,260.487 243.702,366.707 241.966,381.5C241.9,382.056 212.557,383.037 208.481,380.522C202.994,377.137 212.158,372.435 201.784,361.261C198.566,357.795 199.62,194.229 201.318,190.426C204.583,183.114 204.106,183.116 206.003,175.444C207.163,170.753 209.788,173.342 352.496,172.968C357.541,172.954 354.932,179.292 357.318,185.577C360.276,193.37 360.965,193.198 360.966,201.5C360.983,358.492 361.12,358.867 359.22,361.26C353.092,368.972 354.626,369.62 354.017,379.448C353.844,382.239 319.066,385.495 319.037,377.507C318.611,262.725 322.108,253.503 309.738,240.262L305.261,235.739ZM134.404,380.5C127.55,380.939 97.877,382.841 48.552,381.017C39.922,380.698 46.444,376.216 46.999,367.542C47.344,362.141 49.27,363.337 54.556,362.921C59.824,362.506 59.034,359.498 59.034,258.5C59.034,165.781 60.027,163.066 53.574,161.316C46.532,159.406 46.129,158.101 45.966,144.505C45.936,142.057 55.634,142.036 56.5,142.034C61.777,142.023 121.849,141.896 122.458,141.999C128.171,142.963 126.963,165.6 126.968,166.496C127.015,174.397 136.76,171.136 136.918,174.397C137.905,194.682 141.948,193.758 141.963,195.493C142.076,208.37 143.31,348.708 142.001,356.458C141.101,361.792 135.918,360.186 134.404,380.5ZM515.966,380.5C509.169,381.213 487.09,383.528 430.543,381.002C426.465,380.82 428.454,366.308 425.216,362.739C418.287,355.102 420.025,347.807 420.034,341.5C420.248,203.556 418.805,194.454 422.78,188.74C428.471,180.562 420.855,174.875 430.426,172.315C438.342,170.198 434.806,167.076 436.983,143.552C437.182,141.393 438.584,142.243 513.495,141.966C518.338,141.948 516.788,160.071 509.458,161.001C501.005,162.075 502.966,166.261 502.966,208.5C502.966,358.766 502.141,362.261 508.443,362.921C518.072,363.929 515.038,371.818 515.966,380.5ZM128.034,120.5C128.125,118.482 127.989,116.457 128.079,114.439C128.254,110.537 149.338,103.82 180.397,88.297C269.878,43.575 269.762,43.461 277.603,39.706C282.725,37.253 283.136,39.344 342.397,68.706C373.085,83.91 373.592,82.826 380.603,87.331C394.885,96.509 434.103,107.862 434.032,118.504C433.972,127.602 437.597,132.033 428.5,132.035C156.134,132.075 156.172,133.233 132.493,132.963C123.911,132.865 127.167,128.856 128.034,120.5ZM7.5,424.034C557.585,424.034 558.87,423.872 558.919,425.396C559.341,438.573 560.457,449.945 554.507,449.963C510.426,450.103 4.906,451.7 3.486,449.514C2.442,447.906 2.11,447.396 2.983,425.552C3.065,423.48 4.043,424.42 7.5,424.034ZM522.5,413.966C31.279,413.966 31.122,414.022 30.596,413.5C30.284,413.192 27.988,392.05 32.488,392.035C72.41,391.902 529.334,390.385 531.517,392.483C531.565,392.529 533.731,413.761 530.594,413.914C527.899,414.046 525.195,413.834 522.5,413.966ZM366.034,380.5C366.074,371.827 363.139,369.074 371.575,366.65C374.393,365.84 374.034,364.416 374.034,206.5C374.034,205.058 374.034,188.879 373.523,188.48C365.534,182.244 360.707,180.858 367.782,173.782C369.479,172.086 413.808,173.451 413.919,175.396C414.369,183.273 416.048,185.278 408.61,187.944C405.425,189.086 406.866,190.52 406.035,361.5C405.999,368.768 414.9,363.377 414.963,370.493C415.032,378.158 418.245,381.939 410.507,381.963C395.597,382.01 369.589,380.682 366.034,380.5ZM196.966,380.5C193.143,381.124 185.439,382.381 148.552,381.017C147.284,380.971 142.751,369.576 151.574,366.681C158.273,364.484 155.034,361.455 155.034,280.5C155.034,188.617 155.498,187.19 152.575,186.35C151.598,186.07 143.32,183.69 147.707,174.61C149.264,171.387 150.282,171.409 192.448,173.99C193.743,174.069 198.933,182.768 191.423,186.317C184.528,189.576 187.035,204.477 187.035,206.5C187.035,364.403 186.684,365.664 189.423,366.65C199.567,370.302 196.928,373.048 196.966,380.5ZM424.404,162.5C418.01,163.67 418.108,163.034 409.5,163.035C162.741,163.057 162.957,164.969 141.542,164.001C136.219,163.761 137.96,144.264 137.983,143.552C138.03,142.059 149.491,142.036 150.5,142.034C172.336,141.992 409.348,141.531 423.448,141.983C425.179,142.038 425.973,154.998 424.404,162.5Z"/>
        </g>
    </g>
</svg>
