<?xml version="1.0" encoding="UTF-8" standalone="no"?>
<!DOCTYPE svg PUBLIC "-//W3C//DTD SVG 1.1//EN" "http://www.w3.org/Graphics/SVG/1.1/DTD/svg11.dtd">
<svg width="100%" height="100%" viewBox="0 0 240 191" version="1.1" xmlns="http://www.w3.org/2000/svg" xmlns:xlink="http://www.w3.org/1999/xlink" xml:space="preserve" xmlns:serif="http://www.serif.com/" style="fill-rule:evenodd;clip-rule:evenodd;stroke-linejoin:round;stroke-miterlimit:2;">
    <g transform="matrix(1,0,0,1,-0,-9.656465)">
        <g id="mine" transform="matrix(0.370654,0,0,0.370654,-0.812719,8.895394)">
            <path d="M550.024,177.5C585.689,207.703 586.669,207.441 586.921,211.444C587.352,218.26 588.393,218.104 594.921,296.444C597.836,331.419 592.179,339.548 611.741,354.219C631.057,368.707 630.822,369.846 632.921,382.444C647.174,467.963 654.261,472.946 646.5,472.966C430.832,473.51 423.573,470.58 426.706,476.4C429.857,482.254 456.308,515.705 449.604,515.919C434.064,516.416 430.082,519.514 424.65,504.423C423.007,499.859 370.611,502.81 302.504,501.968C297.479,501.906 295.827,515.943 289.507,515.963C285.843,515.975 267.732,517.368 269.306,513.425C269.904,511.926 287.019,485.69 291.78,479.74C299.908,469.585 287.154,476.089 274.556,473.079C272.851,472.672 3.638,473.702 2.467,472.532C0.406,470.472 10.278,469.414 20.921,405.556C27.261,367.517 25.68,367.457 31.999,329.542C35.439,308.899 41.661,312.643 63.259,297.219C80.103,285.191 83.067,286.531 84.921,273.556C94.263,208.159 90.31,206.1 124.331,149.397C143.353,117.694 140.488,113.075 155.444,110.079C171.442,106.874 216.856,98.64 225.78,86.74C227.9,83.914 293.193,3.689 296.425,2.351C298.501,1.492 298.475,2.12 325.574,9.315C336.096,12.109 335.456,13.791 354.426,18.684C359.895,20.095 361.134,20.09 367.739,26.261L370.024,28.5C370.077,28.546 387.867,45.266 397.26,52.78C406.674,60.312 407.673,57.842 443.458,64.999C473.697,71.046 473.768,70.092 481.458,70.999C486.866,71.636 486.475,73.167 514.651,130.423C516.179,133.528 519.043,152.054 547.739,175.261L550.024,177.5ZM382.5,489.034C397.924,489.034 416.718,490.119 414.661,486.443C409.005,476.332 409.826,471.996 398.574,474.685C392.409,476.158 319.088,470.556 315.332,476.397C309.781,485.033 306.724,488.644 311.439,488.921C314.318,489.089 314.293,488.794 347.496,489.032C365.026,489.158 364.867,488.971 382.5,489.034ZM224.5,215.966C212.641,214.435 214.041,218.379 214.037,219.493C214.032,221.217 213.969,240.837 216.406,240.914C217.16,240.938 341.89,240.658 478.496,241.032C480.778,241.038 506.838,241.11 506.918,238.604C507.153,231.277 508.402,214.347 503.454,215.327C499.831,216.045 499.874,215.966 224.5,215.966ZM492.034,353.5C491.656,271.206 489.472,270.608 491.901,254.5C492.752,248.852 467.877,251.076 467.486,251.486C465.998,253.046 465.82,442.7 466.079,455.556C466.207,461.886 484.012,460.097 489.604,459.918C492.513,459.825 490.887,457.906 491.037,410.493C491.127,381.971 492.034,382.219 492.034,353.5ZM209.573,441.416C211.169,440.664 211.09,440.781 211.28,440.498C210.459,437.787 189.24,382.718 182.261,375.738C171.312,364.79 169.52,367.545 123.423,348.683C113.333,344.554 124.685,356.746 134.685,389.426C140.61,408.791 141.671,420.047 143.953,413.664C153.13,387.992 147.302,378.901 161.444,380.921C175.693,382.957 179.65,379.21 187.318,395.577C202.477,427.933 207.674,437.809 209.573,441.416ZM404.738,330.262L399.261,324.739C392.418,319.457 390.678,316.553 381.26,325.22C372.479,333.299 360.551,299.896 347.781,317.741C337.808,331.676 336.532,335.88 320.574,329.319C315.632,327.287 316.101,330.364 300.262,346.262C299.825,346.7 292.61,353.942 299.493,353.963C309.569,353.994 418.393,354.332 425.448,354.017C435.637,353.562 411.185,335.538 404.738,330.262ZM483.5,184.034C486.764,183.585 510.992,180.251 523.606,174.669C524.842,174.122 519.871,155.163 500.398,167.332C488.196,174.956 455.797,188.466 483.5,184.034ZM272.739,151.261L275.024,153.5L277.024,155.5C298.748,181.009 300.791,183.347 300.983,180.579C301.006,180.247 287.811,143.721 287.682,143.423C285.396,138.154 285.129,137.537 225.396,107.706C222.826,106.423 222.717,107.287 197.542,112.999C193.518,113.912 192.979,113.673 191.686,117.576C183.789,141.406 178.185,198.679 178.743,199.249C181.89,202.462 192.864,171.183 205.668,151.602C206.856,149.786 207.207,143.163 211.55,144.078C236.59,149.354 262.596,141.787 272.739,151.261ZM372.738,50.262L361.261,38.739C357.584,35.808 355.074,34.744 355.099,39.5C355.301,77.352 360.227,85.235 362.332,88.602C384.312,123.777 386.752,126.846 387.195,123.45C388.976,109.783 373.103,99.127 389.65,69.575C390.653,67.783 391.751,65.824 372.738,50.262ZM419.262,268.738L423.739,273.261C426.913,277.186 427.112,276.844 430.262,280.738L437.739,288.261C440.913,292.186 441.112,291.844 444.262,295.738L449.739,301.261C450.201,301.833 454.401,307.026 455.728,308.223C459.779,311.88 458.039,301.403 458.034,300.5C457.9,272.892 450.484,275.349 432.543,254.458C431.171,252.86 427.14,248.167 406.429,251.072C404.699,251.315 402.327,254.464 419.262,268.738ZM149.5,279.966C127.172,283.555 106.509,279.082 98.22,288.26C84.453,303.501 53.466,316.624 62.351,316.96C78.571,317.575 78.327,318.774 94.496,319.032C97.278,319.076 123.821,300.756 153.577,285.651C154.368,285.249 167.065,278.804 161.646,278.046C160.273,277.854 150.465,279.776 149.5,279.966ZM546.739,374.261L550.024,377.5C553.167,380.161 552.921,380.109 556.26,382.78C560.133,385.88 559.801,386.077 563.739,389.261L566.024,391.5C592.219,423.218 616.599,485.955 600.315,436.574C599.67,434.615 599.87,434.731 594.077,411.561C590.308,396.483 593.55,395.118 583.738,383.262L579.261,378.739C578.635,378.251 578.83,378.066 571.738,372.262L562.261,362.739C540.82,336.227 527.868,273.673 535.999,322.458C542.534,361.662 537.108,363.916 546.739,374.261ZM255.034,267.5C254.719,255.818 257.212,250.971 245.5,251.035C234.503,251.094 228.512,247.607 230.079,258.556C232.323,274.231 230.404,427.466 231.079,457.561C231.163,461.297 249.57,459.969 251.507,459.963C258.59,459.94 254.977,456.392 254.965,449.5C254.891,406.911 253.947,407.177 253.968,403.496C254.343,335.43 255.034,335.604 255.034,267.5ZM299.5,363.966C280.419,362.549 280.216,364.88 280.08,366.44C279.405,374.178 286.118,371.053 287.996,378.45C302.954,437.366 301.78,437.875 304.764,442.225C309.341,448.898 320.012,413.033 343.781,443.259C347.574,448.083 358.488,445.551 374.5,445.364C379.296,445.309 390.386,422.532 407.26,435.78C411.691,439.26 416.634,446.878 418.999,434.542C424.361,406.568 427.794,407.6 432.996,379.55C433.886,374.746 450.121,363.449 430.507,363.037C420.028,362.817 420.068,363.966 299.5,363.966ZM326.496,462.032C328.073,461.508 343.378,456.424 334.22,442.742C325.291,429.402 299.642,456.94 326.496,462.032ZM394.5,462.034C416.938,460.09 404.62,431.483 387.742,442.78C382.528,446.27 382.909,460.585 394.5,462.034ZM273.261,299.261L280.738,291.738C281.74,290.511 282.203,291.103 294.261,277.261L310.738,260.738C311.246,260.11 323.597,249.519 309.542,250.999C306.283,251.343 305.046,253.401 295.546,251.327C289.931,250.102 264.852,279.378 264.079,286.444C261.805,307.239 263.903,308.061 265.557,307.662C266.443,307.448 266.688,307.389 273.261,299.261Z"/>
        </g>
    </g>
</svg>
