<?xml version="1.0" encoding="UTF-8" standalone="no"?>
<!DOCTYPE svg PUBLIC "-//W3C//DTD SVG 1.1//EN" "http://www.w3.org/Graphics/SVG/1.1/DTD/svg11.dtd">
<svg width="100%" height="100%" viewBox="0 0 231 210" version="1.1" xmlns="http://www.w3.org/2000/svg" xmlns:xlink="http://www.w3.org/1999/xlink" xml:space="preserve" xmlns:serif="http://www.serif.com/" style="fill-rule:evenodd;clip-rule:evenodd;stroke-linejoin:round;stroke-miterlimit:2;">
    <g transform="matrix(1,0,0,1,-4.502927,0)">
        <g id="mountain_hold" transform="matrix(0.271085,0,0,0.271085,3.798631,-0.64152)">
            <path d="M393.739,382.261C396.631,385.404 398.152,388.03 397.963,426.507C397.945,430.278 378.853,453.978 364.781,472.741C356.943,483.191 351.979,486.751 351.968,491.504C351.959,495.171 351.865,534.529 349.216,537.261C330.035,557.052 328.412,557.241 324.999,584.542C323.064,600.025 322.566,625.016 315.496,625.032C294.982,625.081 291.049,617.383 278.781,633.741C271.532,643.406 268.734,643.488 250.552,641.01C248.799,640.771 240.469,627.24 236.457,626.999C224.531,626.281 219.273,626.611 222.315,614.426C229.107,587.225 227.581,567.54 238.78,554.74C255.987,535.076 262.338,542.002 263.669,536.564C264.747,532.165 249.967,536.589 249.968,530.496C249.969,519.717 258.984,357.624 259.784,356.739C263.191,352.969 266.67,353.083 269.963,347.803C271.147,345.904 272.447,349.697 274.574,348.691C294.895,339.082 298.942,333.329 298.965,340.488C299.126,389.329 295.861,473.58 300.947,409.562C305.231,355.631 303.921,313.457 307.315,302.426C307.618,301.444 320.824,267.27 310.561,266.079C304.984,265.432 281.892,275.888 278.332,282.397C277.151,284.557 263.968,308.663 263.26,309.22C248.494,320.831 249.073,327.99 249.035,355.5C249.004,378.078 247.138,377.889 247.035,400.5C246.961,416.652 238.765,410.661 223.574,417.682C216.941,420.747 204.539,410.94 195.444,412.079C184.38,413.465 183.19,412.489 176.781,421.741C164.608,439.312 157.596,450.866 145.781,464.741C142.924,468.095 142.085,468.311 141.966,497.5C141.834,529.725 141.235,530.296 139.217,532.217C130.159,540.844 128.316,540.209 125.013,556.449C123.448,564.14 113.879,547.44 101.741,556.781C96.17,561.068 71.638,596.249 80.684,564.574C97.278,506.47 96.124,505.561 108.78,489.74C126.887,467.107 121.664,464.581 135.314,424.424C150.586,379.496 143.957,364.419 176.45,357.078C177.132,356.924 181.274,360.623 195.741,348.779C204.842,341.328 209.781,304.17 223.261,287.261L232.738,277.738C241.143,271.196 241.591,271.155 252.682,241.577C272.472,188.803 273.029,186.962 274.395,186.336C285.789,181.117 290.211,183.152 302.458,181.001C306.235,180.337 312.628,179.215 326.317,139.423C327.98,134.592 329.945,128.878 374.259,97.219C380.414,92.822 378.789,91.483 394.317,50.423C395.802,46.497 396.117,45.665 433.261,15.261L436.738,11.738C440.924,8.48 440.911,8.518 441.259,8.219C443.705,6.123 443.205,5.869 445.74,3.78C450.432,-0.084 453.456,4.547 459.262,10.738L497.739,49.261C513.67,68.96 515.026,67.446 534.741,83.219C545.786,92.057 554.071,132.223 567.318,165.577C575.361,185.828 611.908,178.365 618.683,195.423C645.081,261.888 640.132,265.627 658.262,279.738L685.739,307.261C695.974,318.219 700.739,362.94 711.35,392.577C713.196,397.735 750.747,411.457 753.22,414.741C756.864,419.583 768.015,475.246 769.079,480.556C772.082,495.547 778.646,493.386 785.001,526.542C792.826,567.36 794.566,566.959 795.001,570.542C797.125,588.036 783.701,561.718 772.406,559.914C770.079,559.543 766.294,538.056 765.921,527.444C765.841,525.177 756.611,509.771 757.191,526.494C757.645,539.585 754.807,524.029 753.999,516.458C750.475,483.436 760.037,480.952 745.669,459.397C743.75,456.519 732.981,440.363 721.219,423.741C718.375,419.72 717.327,421.623 692.542,421.001C682.466,420.748 691.59,402.221 675.444,403.079C668.631,403.441 672.664,419.922 662.426,415.682C652.158,411.429 650.542,415.125 645.783,410.26C642.419,406.821 642.001,332.281 641.963,325.493C641.926,318.972 623.69,307.849 624.327,304.454C624.616,302.914 625.659,302.382 615.669,287.397C599.958,263.832 573.633,263.836 576.318,271.574C591.649,315.757 583.235,317.117 590.009,440.505C591.102,460.418 589.776,460.286 590.757,480.361C593.606,538.618 593.036,342.136 593.072,340.429C593.208,333.992 616.181,351.143 617.058,347.444C618.254,342.401 617.313,341.457 599.602,331.332C585.762,323.418 595.979,318.29 590.996,300.45C588.271,290.695 587.895,291.006 586.999,287.458C583.384,273.146 596.779,283.064 605.603,288.332C605.679,288.378 630.921,323.262 631.002,325.543C631.716,345.745 631.941,347.533 629.454,346.926C628.431,346.676 627.469,346.164 626.424,346.033C625.597,345.93 623.322,347.343 630.216,355.739C632.139,358.08 639.649,527.412 638.966,533.5C638.942,533.711 638.848,533.626 624.353,534.046C615.968,534.289 640.318,544.264 645.262,548.738L651.739,555.261C658.768,562.787 656.395,567.832 667.316,611.574C671.935,630.074 640.771,629.757 640.739,629.784C630.479,638.235 626.393,653.075 610.78,632.26C597.129,614.058 572.743,635.404 569.999,617.458C567.937,603.976 566.61,565.033 560.78,557.26C558.514,554.238 558.506,554.506 556.023,551.5L551.738,547.262C539.356,533.084 540.012,532.174 539.968,513.496C539.925,495.566 544.515,493.86 533.219,479.741C516.33,458.629 494.015,428.201 493.998,427.457C493.626,410.855 494.016,391.564 494.079,388.444C494.105,387.133 494.423,387.298 499.976,380.5L518.976,361.5L521.261,359.261C530.221,351.028 526.883,369.38 529.079,382.556C529.585,385.592 540.585,491.08 538.091,434.497C535.53,376.399 538.195,376.464 534.999,318.458C534.256,304.986 538.728,306.896 539.575,307.349C568.731,322.947 569.029,323.694 569.034,326.505C569.039,329.502 570.872,414.827 571.037,422.507C571.161,428.254 572.901,430.762 573.035,456.5C573.075,464.33 574.911,464.055 575.037,478.507C575.079,483.36 583.296,496.411 580.1,483.553C579.787,482.296 578.148,454.947 577.999,452.458C576.972,435.334 576.966,398.217 576.965,393.5C576.951,311.562 574.526,299.455 572.921,291.444C569.623,274.983 568.757,275.289 567.92,258.44C567.6,251.982 536.285,238.937 534.926,229.449C533.257,217.793 534.854,181.454 533.216,179.739C522.412,168.426 518.257,170.151 517.998,166.457C517.443,158.528 516.481,158.832 503.22,139.785C502.333,138.512 492.601,139.101 488.738,135.261C468.951,115.59 458.739,134.658 454.35,124.575C452.75,120.899 449.833,51.751 449.319,49.572C446.223,36.424 453.42,19.903 446.933,31.835C444.22,36.824 442.819,126.856 438.448,127.017C418.42,127.757 415.961,121.692 401.26,135.22C396.383,139.707 391.298,133.714 376.669,155.603C373.566,160.245 372.818,159.991 372.904,165.506C372.971,169.818 358.143,176.269 357.999,181.543C356.634,231.54 357.835,232.352 355.259,234.22C332.091,251.018 328.564,249.08 326.921,260.556C322.789,289.424 314.968,287.978 314.966,317.5C314.955,443.502 306.974,458.303 309.066,488.574C309.094,488.98 311.702,492.328 313.079,485.444C323.352,434.058 320.669,328.404 323.332,324.397C327.695,317.832 349.123,317.058 344.161,304.61C342.792,301.177 323.171,321.462 322.998,312.457C322.616,292.567 327.894,293.435 330.079,274.44C330.274,272.75 333.942,264.29 334.317,263.423C337.184,256.81 356.866,243.573 357.02,248.551C358.249,288.226 356.919,293.731 355.999,297.542C355.191,300.89 359.05,310.766 354.999,327.542C354.746,328.592 357.613,365.716 354.999,376.542C354.895,376.973 355.106,376.974 355.011,429.5C354.944,466.791 360.881,407.419 361.079,405.444C365.352,362.714 361.911,351.253 370.262,358.738L393.739,382.261ZM286.5,577.034C296.478,575.741 290.52,570.105 295.668,561.602C296.797,559.739 293.743,558.78 303.688,535.579C306.526,528.957 303.832,514.742 305.727,503.562C306.108,501.315 303.234,499.816 302.904,503.503C301.911,514.596 301.54,531.566 300.675,533.572C291.663,554.469 292.468,554.764 291.683,556.577C290.126,560.169 287.441,561.083 285.318,566.423C282.687,573.039 279.397,576.148 286.5,577.034ZM596.599,575.5C603.047,578.415 602.872,578.573 603.455,578.741C607.814,579.994 598.315,549.498 596.689,545.399C593.061,536.255 594.828,559.235 594.921,560.444C595.513,568.138 595.759,567.957 596.599,575.5ZM643.739,706.261C644.607,707.311 652.817,717.232 653.001,720.542C655.115,758.445 666.643,768.454 655.458,769.001C612.013,771.126 608.46,780.058 596.78,766.26C583.612,750.703 585.071,747.817 565.426,742.685C548.163,738.174 539.102,707.793 531.457,706.999C530.655,706.915 522.068,706.024 521.444,705.921C505.778,703.354 512.907,686.911 498.74,675.22C493.014,670.494 495.46,668.897 485.668,652.398C475.169,634.706 516.416,649.275 512.682,638.426C511.222,634.186 509.06,627.904 508.965,582.5C508.952,576.023 508.868,536.121 508.001,501.542C507.93,498.705 491.077,478.655 487.78,474.26C479.525,463.253 479.905,461.054 472.5,461.035C420.952,460.9 420.719,459.031 416.598,460.768C413.361,462.133 413.179,462.21 388.781,494.741C381.634,504.269 386.088,525.324 385.001,543.458C379.757,630.951 383.159,631.374 380.306,638.425C379.627,640.103 380.262,642.277 402.458,642.999C417.276,643.481 399.796,660.429 394.318,672.423C390.682,680.382 388.158,678.628 384.294,686.397C377.127,700.812 378.259,703.954 362.444,706.079C346.91,708.167 348.814,742.007 309.444,744.079C306.708,744.223 304.222,744.354 283.781,766.741C273.731,777.747 271.333,772.966 241.5,772.966C207.751,772.966 208.086,770.064 174.542,769.001C167.776,768.787 170.031,748.138 169.963,744.493C169.656,728.017 170.252,728.217 174.315,712.426C187.551,660.993 161.744,724.183 152.603,729.669C134.572,740.489 140.139,765.12 125.496,765.032C89.446,764.817 70.883,765.069 68.444,764.921C55.417,764.134 59.177,757.421 59.651,756.575C65.13,746.792 11.255,758.709 2.778,749.271C0.971,747.258 13.301,718.778 15.668,714.602C24.829,698.442 23.648,692.292 39.315,637.426C45.727,614.974 50.055,617.398 69.603,606.668C72.396,605.134 84.165,582.565 86.338,577.432C90.385,567.871 111.824,567.039 112.575,567.35C115.861,568.711 128.452,588.849 128.683,589.423C131.59,596.655 141.496,592.026 149.542,590.999C183.92,586.609 180.051,599.55 197.332,629.603C200.626,635.331 231.178,639.745 233.65,645.425C238.642,656.895 237.638,657.073 242.683,668.423C252.326,690.121 253.024,691.783 254.237,690.226C260.848,681.734 259.521,680.67 268.259,674.219C276.14,668.402 272.205,637.992 296.5,638.034C321.523,638.078 322.937,634.076 330.739,641.261L334.024,644.5C337.446,647.73 336.983,649.17 341.454,648.327C346.068,647.457 345.945,649.895 350.444,649.079C357.184,647.855 358.667,650.869 362.331,645.397C370.374,633.386 354.376,640.971 348.78,633.26C345.093,628.178 344.617,628.761 338.542,628.001C329.857,626.915 330.838,624.219 331.921,615.556C336.565,578.407 334.248,568.908 343.261,559.261L357.738,544.738C361.463,540.691 359.903,540.039 361.999,496.542C362.197,492.425 363.274,492.733 403.78,438.74C407.871,433.288 409.194,434.695 454.493,434.037C482.81,433.625 484.171,432.78 489.781,440.259C511.273,468.915 529.94,488.692 529.966,497.5C530.052,526.842 529.202,539.237 534.739,545.261L537.024,547.5L549.024,559.5C557.073,568.109 554.384,569.31 554.999,575.458C557.017,595.635 558.089,595.358 559.921,615.444C560.011,616.422 560.937,626.582 555.556,626.921C546.538,627.491 545.94,629.628 539.262,636.261C536.156,639.345 527.617,638.575 527.035,639.5C523.735,644.746 536.214,646.341 536.65,647.419C538.894,652.964 548.989,651.357 556.779,642.741C562.972,635.893 568.607,638.038 592.507,637.963C610.204,637.907 607.432,644.109 614.683,660.423C626.075,686.055 621.985,689.326 640.262,702.738L643.739,706.261ZM87.261,664.261L97.738,653.738C107.544,645.472 104.48,638.268 113.806,617.613C122.495,598.369 100.206,638.103 91.532,638.003C89.574,637.98 85.457,637.932 72.781,653.741C70.223,656.93 64.094,684.314 60.316,699.426C60.123,700.197 57.378,711.178 59.393,709.317C83.15,687.379 76.454,683.21 82.349,670.423L87.261,664.261ZM369.738,345.262C361.669,334.879 367.027,333.247 367.034,274.5C367.035,269.219 367.664,269.322 368.364,208.5C368.562,191.327 364.203,189.702 375.219,176.259C380.008,170.415 378.671,162.528 382.783,158.783C384.128,157.558 398.959,144.052 402.518,147.482C404.501,149.393 400.673,164.19 407.741,158.781C416.923,151.754 409.171,137.31 419.44,137.079C475.771,135.817 477.85,137.839 478.001,142.542C478.331,152.83 474.725,155.856 484.421,159.666C493.491,163.23 479.731,151.099 487.435,145.419C488.984,144.277 510.128,158.414 512.681,166.426C515.75,176.051 518.469,174.437 522.681,183.426C524.037,186.317 521.583,232.525 524.001,242.542C524.871,246.142 524.958,303.223 524.966,308.5C525.004,333.54 531.651,336.365 517.549,350.549C487.952,380.316 486.05,379.308 486.037,383.493C485.954,409.274 487.815,422.943 481.507,422.963C420.801,423.157 420.739,422.482 413.556,423.921C412.934,424.046 407.388,425.157 406.999,419.458C405.987,404.644 406.028,388.218 406.034,385.5C406.048,379.835 405.082,380.091 400.738,376.262L389.261,364.739C384.27,359.415 384.591,359.333 379.023,354.5L369.738,345.262ZM454.739,203.261L459.024,207.5C461.119,209.274 460.701,209.492 462.741,211.219C463.133,211.552 463.111,211.519 467.739,215.261L470.024,217.5C476.221,222.748 475.737,225.866 483.426,223.319C486.631,222.256 489.066,222.93 487.193,220.703C486.613,220.013 485.788,219.032 478.738,213.262L470.261,204.739C469.635,204.251 469.83,204.066 462.738,198.262L455.261,190.739C455,190.498 451.147,186.961 451.046,189.353C450.722,197.003 449.58,197.649 454.739,203.261ZM432.738,251.262L430.261,248.739C426.735,245.993 420.077,238.341 420.999,250.458C422.646,272.096 420.219,277.984 424.273,274.223C425.615,272.978 436.282,263.879 437.65,260.575C439.301,256.585 434.138,252.873 432.738,251.262ZM435.976,205.5L438.261,203.261C443.42,197.649 442.278,197.003 441.954,189.353C441.901,188.114 440.167,187.39 429.262,198.262C415.245,212.234 404.053,220.132 406.471,222.528C414.23,230.217 428.4,211.915 435.976,205.5ZM491.034,274.5C491.03,273.5 490.97,272.5 490.965,271.5C490.881,251.88 491.024,252.037 490.963,232.493C490.953,229.313 486.723,226.18 481.664,236.605C480.838,238.307 475.944,238.79 475.968,243.504C476.092,267.835 474.742,276.462 488.703,289.193C489.582,289.995 490.672,289.053 491.034,274.5ZM400.966,235.5C400.966,281.872 399.34,295.945 407.219,286.259C413.707,278.285 409.849,276.827 413.681,267.574C413.774,267.35 413.954,267.37 414.032,243.504C414.033,243.207 402.573,213.662 400.966,235.5ZM453.5,375.034C458.629,374.549 460.297,374.828 460.017,369.547C459.905,367.445 431.462,366.187 431.996,370.463C432.064,371.007 432.463,374.201 436.452,375.671C437.733,376.143 437.579,375.084 453.5,375.034ZM459.976,239.5L462.261,237.261C464.819,235.176 464.636,235.17 467.216,233.221C469.58,231.434 467.794,230.411 447.275,211.836C445.715,210.424 441.263,216.967 434.26,222.22C425.953,228.45 421.59,229.945 426.259,233.779C440.772,245.697 445.404,252.607 451.259,247.219C451.945,246.589 455.868,242.979 459.976,239.5ZM462.261,320.261L468.738,313.738C469.365,313.251 469.17,313.066 476.261,307.261L480.738,302.738C485.551,298.954 488.987,297.067 483.423,294.683C473.728,290.528 472.729,293.746 457.739,308.738C453.841,312.637 455.462,313.682 451.784,317.739C449.887,319.831 450.711,330.702 453.297,328.251C453.995,327.59 458.347,323.466 462.261,320.261ZM439.262,298.738L442.024,301.5C446.03,305.272 445.758,306.103 447.562,305.664C447.958,305.568 451.901,300.706 452.261,300.261L459.738,292.738C465.083,288.579 466.685,286.852 467.223,286.272C468.433,284.967 469.03,283.263 451.259,270.781C441.964,264.251 424.455,284.699 425.777,286.271C429.812,291.068 430.808,289.723 439.262,298.738ZM412.262,302.738L416.739,307.261C423.83,313.066 423.635,313.251 424.262,313.738L435.739,325.261C436.769,326.214 437.706,327.266 438.737,328.219C441.621,330.886 449.751,320.744 427.023,301.5L424.738,299.262C422.172,297.186 422.296,297.263 419.74,295.22C414.491,291.022 413.932,293.447 407.383,295.067C406.677,295.242 405.032,296.665 412.262,302.738ZM469.034,255.5C468.93,252.811 469.036,250.116 468.932,247.426C468.714,241.774 450.537,255.784 456.781,263.259C457.512,264.135 464.201,272.143 467.435,272.737C468.797,272.987 469.058,272.201 469.034,255.5ZM770.261,650.739C762.856,641.79 765.107,637.814 753.543,637.002C750.569,636.794 742.045,619.013 741.668,618.398C734.115,606.038 731.211,605.359 734.741,602.78C747.958,593.124 750.094,572.882 758.444,572.079C773.815,570.6 777.066,572.778 778.397,573.669C791.886,582.702 785.492,589.261 799.603,597.331C820.276,609.156 814.592,617.65 827.316,665.574C830.367,677.067 834.817,675.093 841.685,697.426C856.089,744.27 856.527,746.514 852.575,747.65C818.845,757.348 774.771,747.696 776.743,755.436C780.354,769.606 757.723,764.498 748.574,766.685C747.801,766.869 747.932,766.888 695.504,767.032C687.925,767.053 685.71,753.359 683.219,750.741C673.754,740.79 678.723,738.642 674.684,725.426C671.861,716.188 670.331,707.372 662.259,701.781C658.143,698.929 631.072,685.773 631.099,666.5C631.101,664.804 631.893,665.216 640.703,647.604C647.983,633.05 664.066,641.873 670.219,633.259C682.762,615.703 687.528,603.059 694.493,603.037C719.227,602.959 727.03,599.798 731.683,612.423C743.594,644.743 737.211,649.927 760.603,665.331C776.474,675.782 767.718,681.973 779.781,698.259C784.184,704.204 783.674,704.321 787.666,710.351C793.401,719.013 786.741,698.492 781.001,668.542C779.563,661.037 779.902,660.789 774.738,655.262L770.261,650.739ZM733.024,453.5C741.748,463.744 749.328,469.972 742.825,475.758C741.595,476.853 744.648,510.437 744.921,513.444C745.224,516.77 745.923,530.015 745.999,531.457C746.123,533.804 759.309,541.783 759.921,551.444C760.432,559.495 765.282,566.011 749.446,568.079C746.216,568.501 724.73,603.108 719.319,587.575C718.718,585.85 713.604,541.45 704.332,555.397C700.347,561.392 709.729,589.712 701.457,590.002C692.328,590.322 691.036,588.105 679.262,599.217C671.993,606.076 670.351,560.179 663.219,551.741C649.38,535.365 651.033,534.074 651.034,521.5C651.039,477.753 647.091,476.014 655.524,467.52C656.113,466.927 638.773,424.451 646.396,424.081C665.644,423.147 689.527,431.198 706.444,429.079C715.003,428.007 714.165,431.235 729.739,450.261L733.024,453.5ZM703.034,515.5C703,509.483 703.695,494.162 701.22,491.785C691.546,482.497 690.591,518.509 696.552,520.01C701.524,521.262 702.393,520.48 703.034,515.5ZM685.034,513.5C685.029,512.33 686.449,492.245 681.575,490.345C673.588,487.231 675.596,517.032 676.782,518.218C683.916,525.351 684.963,514.257 685.034,513.5ZM717.034,513.5C717.026,511.509 718.028,492.892 714.578,491.352C704.623,486.906 708.129,517.132 708.477,517.52C715.876,525.77 716.963,514.253 717.034,513.5ZM532.024,729.5C546.347,748.556 554.485,746.838 561.22,754.74C576.945,773.193 581.464,776.789 575.561,776.921C568.765,777.074 390.676,776.835 315.504,777.032C310.303,777.046 311.683,774.142 315.261,770.261L323.738,761.738C330.259,756.662 335.86,748.235 339.44,748.079C347.513,747.729 352.686,750.474 350.318,742.574C348.697,737.163 351.187,736.605 352.261,735.261L359.738,727.738C362.888,723.844 363.087,724.186 366.261,720.261L369.738,716.738C374.157,712.81 375.096,714.221 504.5,714.034C509.995,714.026 514.109,708.166 529.739,727.261L532.024,729.5ZM372.5,739.966C370.644,740.105 365.383,736.621 356.807,746.703C352.623,751.622 360.136,747.626 437.496,749.032C461.44,749.467 461.124,744.457 461.001,742.51C460.813,739.527 423.264,740.16 372.5,739.966ZM233.739,463.261C236.587,465.593 236.334,465.686 239.26,467.78C245.317,472.116 238.964,508.191 238.966,521.5C238.967,532.211 241.535,533.691 226.781,551.741C219.343,560.84 216.195,600.981 212.683,609.577C210.28,615.456 208.186,611.66 204.669,606.397C189.236,583.304 186.588,584.776 187.078,582.45C191.079,563.462 182.94,501.175 181.002,542.457C180.674,549.433 168.633,551.168 179.539,559.461C180.239,559.994 181.992,580.08 175.496,580.032C149.36,579.839 142.416,582.5 135.669,572.397C134.693,570.936 134.112,570.066 136.079,550.444C137.164,539.615 150.02,535.397 150.032,530.496C150.098,504.267 152.009,498.657 152.032,494.496C152.13,476.909 153.156,476.951 152.921,475.444C151.265,464.844 165.319,455.46 187.219,426.259C195.457,415.277 197.558,423.976 206.262,434.738L212.739,441.261C219.445,449.554 220.523,448.407 227.262,456.738L233.739,463.261ZM193.5,518.034C203.956,517.136 200.927,512.951 200.965,502.5C201.004,491.876 201.22,488.582 190.542,488.999C189.562,489.038 186.119,490.682 186.079,492.439C186.036,494.37 185.575,514.838 186.351,516.579C187.305,518.722 187.925,517.681 193.5,518.034ZM491.024,681.5C492.202,682.895 515.008,709.915 491.574,704.316C484.911,702.724 388.502,708.48 387.083,702.588C386.535,700.314 395.823,684.161 399.44,684.079C417.983,683.663 495.34,685.841 471.557,680C455.943,676.165 401.655,681.713 405.315,673.427C415.131,651.203 424.87,665.756 444.444,661.079C449.925,659.769 474.818,660.88 477.457,660.998C479.769,661.101 486.479,669.762 485.922,672.55C485.003,677.156 486.436,676.744 488.739,679.261L491.024,681.5ZM484.942,634.5C455.887,647.021 464.063,625.157 463.963,593.493C463.942,586.733 454.113,577.922 449.496,577.968C417.705,578.285 431.77,618.304 428.921,633.561C428.245,637.183 409.027,638.287 406.319,632.574C405.257,630.335 406.964,507.622 407.784,506.739C423.592,489.72 423.352,484.98 427.504,484.968C466.765,484.851 467.493,484.461 470.22,487.74C483.92,504.222 486.421,504.138 486.032,525.504C484.205,625.915 487.234,626.087 484.942,634.5ZM493.034,626.5C492.924,587.811 491.966,587.861 491.965,584.5L491.963,506.493C491.955,503.957 491.545,503.947 472.779,481.259C470.261,478.215 469.596,478.045 423.44,479.08C420.867,479.138 420.29,479.15 402.22,503.26C397.207,509.948 401.212,550.156 399.921,555.556C396.455,570.064 403.002,636.915 394.461,637C385.699,637.088 389.978,632.245 390.032,611.496C390.045,606.291 390.191,550.161 391.079,546.444C394.909,530.415 386.768,503.91 397.74,494.78C408.108,486.154 408.584,480.436 419.739,469.784C421.079,468.504 473.317,468.594 474.22,469.785C484.309,483.107 499.933,497.739 500.032,506.504C501.345,622.609 502.125,622.473 501.921,632.556C501.904,633.417 493.803,643.719 493.034,626.5ZM260.034,344.5C259.988,324.864 260.656,324.661 271.332,308.397C274.315,303.852 278.627,301.976 283.317,291.423C284.025,289.832 284.461,288.85 301.425,279.35C312.786,272.987 298.686,305.331 298.079,314.444C297.813,318.439 298.133,322.455 298.002,326.457C297.981,327.097 270.583,346.777 260.034,344.5ZM535.034,274.5C534.905,255.064 532.083,243.801 539.603,248.331C560.361,260.839 560.782,265.252 561.001,267.542C561.897,276.915 570.879,298.173 568.966,314.5C568.351,319.741 547.255,302.524 543.602,300.332C530.719,292.6 535.006,289.471 535.034,274.5ZM463.5,643.034C464.739,643.121 474.582,643.808 474.017,654.453C473.918,656.317 418.33,658.561 418.997,652.536C419.472,648.24 424.1,644.324 424.74,643.783C425.961,642.75 432.125,643.034 463.5,643.034ZM218.5,425.034C231.443,424.997 244.653,423.891 244.921,427.439C244.973,428.126 243.717,455.649 242.565,456.581C241.626,457.34 224.44,445.809 224.369,440.503C224.307,435.832 200.433,426.379 218.5,425.034Z"/>
        </g>
    </g>
</svg>
