<?xml version="1.0" encoding="UTF-8" standalone="no"?>
<!DOCTYPE svg PUBLIC "-//W3C//DTD SVG 1.1//EN" "http://www.w3.org/Graphics/SVG/1.1/DTD/svg11.dtd">
<svg width="100%" height="100%" viewBox="0 0 142 210" version="1.1" xmlns="http://www.w3.org/2000/svg" xmlns:xlink="http://www.w3.org/1999/xlink" xml:space="preserve" xmlns:serif="http://www.serif.com/" style="fill-rule:evenodd;clip-rule:evenodd;stroke-linejoin:round;stroke-miterlimit:2;">
    <g transform="matrix(1,0,0,1,-49.1299,-0)">
        <g id="plague_marker" transform="matrix(0.425232,0,0,0.425232,47.657054,-0.647482)">
            <path d="M125.261,298.739C71.499,232.262 138.354,179.901 140.668,175.602C152.981,152.739 155.443,153.813 155.254,151.572C154.962,148.123 153.591,148.709 152.684,145.426C151.338,140.553 149.659,140.106 110.543,141.998C106.783,142.18 109.248,156.998 105.578,158.651C99.968,161.177 105.648,167.834 105.921,170.443C107.583,186.303 109.555,194.58 101.67,209.611C98.278,216.077 94.204,190.687 93.037,200.351C91.194,215.613 90.071,215.257 90.327,216.546C94.447,237.271 87.012,279.645 81.004,255.55C73.546,225.638 76.378,263.508 68.004,294.45C64.687,306.709 61.244,295.68 61.079,293.556C59.292,270.655 52.352,270.831 57.921,248.556C58.387,246.691 60.188,239.49 59.158,224.557C58.823,219.698 53.792,231.37 51.584,231.923C45.248,233.512 48.634,155.566 45.019,141.559C43.149,134.316 30.122,155.001 24.317,140.577C21.795,134.31 18.135,136.696 5.603,128.331C-3.749,122.089 20.294,120.346 25.22,114.258C35.617,101.409 37.586,118.309 42.49,118.001C44.805,117.856 41.485,99.888 57.398,109.668C61.523,112.204 96.458,110.731 96.574,110.681C97.581,110.255 107.148,106.201 110.218,109.783C112.316,112.23 113.156,113.21 150.448,112.017C153.116,111.932 152.879,96.397 164.128,109.366C168.049,120.431 169.706,119.262 178.849,126.531C178.165,128.2 178.258,128.091 178.165,128.2C164.746,143.878 188.469,122.549 189.823,119.631C193.517,111.668 187.449,120.339 180.477,125.405C168.41,113.453 165.833,108.154 164.975,106.389C158.563,97.895 161.264,97.052 161.002,86.543C160.831,79.667 137.324,90.393 137.079,79.556C136.862,70 134.371,57.854 141.504,57.968C142.954,57.991 156.669,58.209 159.574,59.318C162.926,60.598 162.835,58.943 166.504,58.968C218.291,59.314 219.52,55.238 222.22,58.785C223.323,60.236 223.803,60.866 222.921,81.561C222.704,86.647 200.669,81.224 199.998,86.543C198.614,97.525 192.534,102.515 203.456,103.998C209.649,104.839 206.371,110.91 212.493,110.963C229.639,111.112 256.618,115.701 260.221,111.258C265.929,104.218 271.325,110.853 273.44,110.92C287.31,111.358 287.27,112.201 288.458,112.001C299.383,110.16 299.538,110.84 300.261,110.216C301.012,109.569 309.367,102.363 312.65,110.423C316.991,121.078 325.342,105.413 332.22,114.74C339.588,124.734 336.769,125.841 332.65,137.577C329.778,145.762 315.372,138.721 312.552,138.983C309.673,139.251 311.007,188.966 309.294,192.397C305.815,199.363 309.003,199.623 308.966,207.5C308.959,209.022 308.052,208.759 307.966,226.5C307.952,229.232 307.822,255.99 305.681,260.575C301.395,269.752 294.298,243.527 293.999,242.457C287.637,219.667 285.203,280.903 277.5,280.906C272.229,280.908 271.054,247.667 271.079,247.444C272.706,232.832 271.682,232.994 272.055,218.501C272.427,204.07 268.954,220.587 267.237,222.226C262.727,226.53 262.215,219.959 261.965,144.488C261.96,142.966 261.949,139.821 243.496,139.968C210.566,140.231 209.622,140.721 209.078,143.434C207.576,150.924 204.85,149.332 204.333,151.437C204.302,151.561 226.02,182.481 226.739,183.261L231.024,187.5L233.024,189.5C235.112,191.952 248.995,208.253 252.996,224.45C271.199,298.135 202.006,319.89 201.477,320.48C199.123,323.105 201.657,413.382 201.884,421.457C202.095,428.982 212.178,400.972 217.272,405.777C225.338,413.386 222.609,415.142 223.364,415.686C225.113,416.943 222.817,413.535 238.261,393.261L240.738,390.738C255.145,377.929 241.124,408.882 238.956,426.498C238.022,434.085 242.019,426.908 247.74,421.78C251.979,417.982 272.769,406.553 268.294,416.397C263.318,427.346 252.765,436.021 261.444,436.921C279.684,438.811 273.832,462.596 287.602,454.668C294.023,450.972 294.319,452.42 301.428,450.312C306.742,448.737 322.469,460.003 326.655,467.425C327.852,469.547 327.028,473.697 296.542,472.001C285.296,471.376 285.943,464.444 268.556,467.921C250.95,471.443 271.655,472.286 276.603,475.331C306.453,493.704 261.376,492.261 245.574,488.316C218.668,481.598 214.927,486.907 216.791,488.059C227.794,494.863 196.803,496.53 193.425,494.65C182.331,488.476 181.529,497.125 164.542,495.001C153.42,493.611 155.243,490.352 155.782,489.737C161.825,482.849 142.74,484.989 134.504,484.968C131.004,484.959 116.574,496.913 81.556,491.079C81.004,490.987 68.978,490.843 79.629,484.694C96.553,474.923 9.492,496.651 28.261,476.261L34.738,469.738C40.82,465.517 40.108,464.069 50.458,462.001C63.796,459.335 75.873,472.665 76.921,463.561C77.78,456.089 80.76,456.356 82.682,451.577C86.09,443.106 93.421,444.418 100.435,443.098C103.263,442.566 92.568,423.04 91.668,421.398C81.239,402.356 122.21,432.544 115.216,440.261C110.642,445.309 111.928,448.768 118.554,447.921C127.506,446.776 119.366,437.87 118.79,437.239C114.222,432.242 116.316,406.884 129.423,401.317C137.422,397.92 137.142,407.128 145.453,404.329C152.798,401.855 162.121,433.623 161.968,417.501C161.676,386.645 164.595,321.746 160.581,320.351C143.029,314.249 143.151,314.058 128.738,302.262L125.261,298.739ZM277.966,174.5C278.566,188.226 281.789,188.333 282.008,187.283C284.515,175.256 280.259,154.767 278.824,168.546C278.774,169.025 278.761,168.987 277.966,174.5ZM201.5,159.726C201.242,160.036 201.055,158.433 200.797,158.742C196.469,163.917 204.895,173.434 207.66,170.66C208.353,169.964 207.96,169.745 202.42,159.561L201.5,159.726ZM151.5,241.034C165.747,242.028 171.954,258.249 172.999,244.542C173.302,240.559 181.07,237.499 178.225,235.764C177.941,235.591 151.877,225.075 162.349,201.423C163.935,197.84 178.405,185.745 168.423,190.31C145.202,200.931 151.558,226.639 149.606,227.665C146.499,229.299 119.491,243.498 129.331,266.586C136.119,282.512 124.839,242.874 151.5,241.034ZM233.034,256.5C230.956,244.396 229.989,236.507 212.577,228.317C204.458,224.498 219.962,207.345 194.426,191.622C182.357,184.191 196.883,196.936 198.683,201.423C209.621,228.699 178.064,234.659 182.774,238.236C187.409,241.756 187.687,241.789 188.078,247.562C188.3,250.827 190.274,250.089 201.601,243.667C217.878,234.438 229.073,251.708 229.011,263.501C228.91,282.498 232.933,257.138 233.034,256.5ZM161.034,159.5C160.897,157.801 161.07,156.087 160.933,154.388C160.398,147.748 154.238,162.166 147.959,170.711C145.036,174.689 149.658,171.831 157.574,169.684C163.904,167.968 161.877,165.881 161.034,159.5ZM202.5,292.034C204.274,291.775 221.639,289.241 222.823,282.582C223.498,278.78 201.62,293.588 191.272,273.614C185.187,261.868 194.763,249.632 182.574,254.682C178.404,256.409 173.068,250.025 173.034,255.487C173.023,257.218 176.008,270.173 164.26,280.22C154.002,288.991 142.24,282.237 140.596,281.293C128.786,274.512 152.413,304.59 178.26,285.219C183.374,281.386 184.511,288.094 194.426,290.684C195.06,290.85 195.003,290.747 202.5,292.034ZM207.034,249.5C204.448,233.883 202.949,251.189 202.92,251.556C202.263,259.929 188.983,273.493 194.46,271.354C203.496,267.824 206.652,251.481 207.034,249.5ZM153.95,251.497C154.398,253.303 158.104,268.222 165.396,271.755C171.739,274.828 161.342,263.137 159.32,257.576C158.959,256.582 159,256.664 156.011,247.726C154.058,241.886 153.954,251.153 153.95,251.497ZM199.5,462.034C209.496,464.427 209.886,463.241 209.738,462.435C209.675,462.093 199.784,451.697 192.556,451.079C183.079,450.269 170.381,460.038 174.346,460.96C185.483,463.549 185.473,468.275 192.397,464.331C195.948,462.309 195.919,462.365 199.5,462.034ZM181.5,216.966C165.824,219.3 167.22,223.739 168.392,223.924C172.404,224.557 176.888,219.603 185.45,221.996C186.056,222.166 197.782,225.444 193.218,220.777C190.231,217.722 182.482,217.051 181.5,216.966ZM63.966,176.5C64.642,195.797 68.799,195.887 69.193,194.444C73.238,179.637 71.46,176.705 70.668,175.398C66.779,168.979 65.948,159.882 65.037,167.351C64.833,169.023 65.17,168.92 64.913,170.555L63.966,176.5ZM176.261,5.261C179.203,2.55 179.297,-0.125 182.261,2.783C191.912,12.25 181.743,31.762 189.79,20.761C193.951,15.072 203.281,19.723 201.921,30.556C200.672,40.507 200.408,40.267 200.002,50.457C199.796,55.634 196.975,52.962 173.507,52.037C164.135,51.668 164.339,53.038 163.539,53.001C161.857,52.923 161.481,52.319 158.999,32.458C157.331,19.117 162.816,21.012 173.976,7.5L176.261,5.261Z" style="fill-opacity:1;"/>
        </g>
    </g>
</svg>
