<?xml version="1.0" encoding="UTF-8" standalone="no"?>
<!DOCTYPE svg PUBLIC "-//W3C//DTD SVG 1.1//EN" "http://www.w3.org/Graphics/SVG/1.1/DTD/svg11.dtd">
<svg width="100%" height="100%" viewBox="0 0 240 193" version="1.1" xmlns="http://www.w3.org/2000/svg" xmlns:xlink="http://www.w3.org/1999/xlink" xml:space="preserve" xmlns:serif="http://www.serif.com/" style="fill-rule:evenodd;clip-rule:evenodd;stroke-linejoin:round;stroke-miterlimit:2;">
    <g transform="matrix(1,0,0,1,-0,-8.80392)">
        <g id="sacred_grove" transform="matrix(0.341857,0,0,0.341857,-0.729569,8.090454)">
            <path d="M249.739,525.261C253.62,530.061 267.155,540.774 256.575,545.681C250.062,548.702 236.134,534.546 205.426,543.316C174.341,552.192 171.462,539.284 166.427,541.315C155.228,545.835 154.862,544.213 134.426,549.316C133.231,549.614 103.6,553.083 102.405,551.576C99.808,548.301 145.881,534.178 150.921,485.556C153.891,456.902 154.613,457.169 156.999,428.542C157.738,419.677 162.643,360.806 163.032,317.504C163.144,305.027 129.794,291.633 124.739,295.784C103.231,313.446 44.564,302.951 42.001,250.542C41.613,242.604 -10.444,230.703 4.996,172.55C9.442,155.803 26.717,142.218 29.259,140.219C34.982,135.72 24.66,116.546 48.603,100.669C53.908,97.151 54.766,98.81 59.216,94.26C62.282,91.127 54.708,59.198 96.426,41.318C109.536,35.7 128.75,40.936 131.454,41.673C133.403,42.204 134.814,42.589 148.976,23.5L151.261,21.261C151.276,21.25 190.54,-17.511 234.741,15.219C239.371,18.649 238.372,19.51 242.739,23.217C244.724,24.902 273.321,8.953 304.741,32.219C328.857,50.078 326.815,86.494 330.397,88.668C342.957,96.289 364.461,93.921 374.004,132.55C375.967,140.495 411.032,169.54 382.331,212.397C377.128,220.166 365.782,222.796 364.999,230.542C362.688,253.41 363.971,254.115 351.668,273.603C342.018,288.888 299.807,304.419 265.423,289.683C261.179,287.864 248.43,279.792 241.741,285.781C212.159,312.263 216.722,337.639 223.001,425.542C228.242,498.917 235.721,507.567 245.262,520.738L249.739,525.261ZM155.739,268.261L158.024,270.5C160.043,272.252 175.087,288.772 175.921,281.561C176.329,278.033 175.121,253.022 175.001,250.542C174.809,246.564 135.678,139.863 153.999,235.458C154.061,235.781 154.074,235.751 154.996,239.45C158.329,252.82 148.14,236.268 122.542,232.001C121.539,231.834 107.643,229.518 110.351,235.578C112.177,239.663 115.544,235.754 155.739,268.261ZM248.034,202.5C247.898,201.137 248.06,199.755 247.924,198.392C246.433,183.457 189.878,295.223 215.397,276.332C232.135,263.941 288.085,244.401 298.662,223.557C304.33,212.385 256.408,239.941 246.398,245.332C243.897,246.678 230.373,257.23 232.663,250.562C240.938,226.465 244.01,227.528 248.034,202.5ZM483.261,288.739C475.858,282.156 466.442,292.384 457.556,292.921C393.5,296.791 384.598,233.102 391.331,221.397C406.611,194.837 407.475,194.041 404.079,163.556C401.8,143.108 437.006,135.174 437.649,133.58C442.742,120.947 438.948,119.141 451.261,104.261L456.738,98.738C458.33,97.563 476.759,79.221 507.453,89.671C508.482,90.021 509.566,90.39 517.261,80.261L522.738,74.738C523.956,73.79 540.15,54.895 578.458,57.999C589.699,58.91 630.856,73.615 636.999,118.457C637.93,125.254 652.352,115.366 673.26,131.78C701.305,153.799 700.714,188.365 690.669,205.603C688.074,210.054 685.398,210.265 688.781,214.259C695.139,221.767 699.539,221.698 702.999,242.458C712.308,298.313 664.832,323.823 625.542,314.001C609.522,309.996 611.252,317.226 596.26,329.22C587.328,336.365 568.071,346.755 568.037,357.493C567.905,399.447 570.311,480.874 584.332,506.602C585.829,509.35 586,509.142 596.739,522.261L611.024,536.5C611.477,536.98 617.749,543.629 614.608,543.924C604.855,544.841 560.079,532.536 558.426,533.318C539.353,542.346 543.82,567.634 532.78,554.26C517.893,536.222 515.851,536.333 492.556,538.921C462.523,542.258 460.44,541.791 461.321,539.452C461.922,537.857 462.885,535.299 476.261,524.261L480.738,519.738C480.813,519.647 503.834,515.074 511.999,365.542C513.99,329.081 514.583,326.927 485.738,291.262L483.261,288.739ZM549.966,267.5C550.128,268.849 549.914,268.844 550.999,284.458C551.088,285.737 553.317,294.72 556.668,288.603C567.424,268.964 568.466,264.568 564.603,262.332C563.824,261.881 547.702,252.122 548.999,261.458C549.067,261.943 549.071,261.905 549.966,267.5ZM596.261,304.261L598.738,301.738C607.569,294.392 596.61,294.902 587.78,283.26C582.539,276.348 581.245,282.323 578.318,290.423C577.484,292.729 566.21,323.923 573.575,320.694C579.197,318.229 594.527,305.681 596.261,304.261ZM506.262,283.738L509.739,287.261C510.385,288.054 516.247,295.237 518.397,296.668C527.894,302.985 523.274,292.432 525.079,262.444C526.023,246.754 518.116,262.671 500.577,270.683C491.446,274.853 498.331,277.565 506.262,283.738ZM366.261,93.739C360.91,89.786 360.039,87.59 346.423,81.683C339.525,78.69 341.075,75.009 338.004,62.55C335.172,51.06 332.303,50.409 336.78,44.74C349.371,28.801 368.227,5.047 409.426,15.684C421.22,18.729 431.106,26.91 432.739,28.261L435.024,30.5C444.859,42.408 445.37,42.185 446.547,41.671C462.626,34.653 462.859,34.503 480.458,35.999C484.715,36.361 522.916,51.523 508.22,74.215C505.283,78.749 448.908,57.142 428.681,120.574C427.862,123.145 427.061,122.403 401.26,140.22C397.045,143.13 396.868,140.694 389.739,133.262C382.877,126.107 384.948,115.433 370.738,98.262L366.261,93.739ZM269.596,563.5C269.461,561.545 268.493,547.479 278.74,540.78C286.05,536.003 288.9,537.301 287.921,531.444C281.817,494.939 294.477,436.551 295.921,423.556C297.166,412.353 302.442,333.976 323.397,323.297C327.174,321.373 344.828,312.376 374.444,309.079C413.786,304.698 425.804,488.739 426.685,492.426C426.985,493.684 426.881,493.631 427.032,527.496C427.065,534.827 425.654,536.349 432.577,539.317C445.829,545 447.772,563.94 440.507,563.963C283.14,564.461 283.045,565.962 269.596,563.5ZM329.397,456.705C329.04,456.59 324.883,455.26 325.081,458.532C325.267,461.615 336.496,461.987 329.397,456.705ZM344.5,444.966C331.915,446.989 329.174,445.292 329.981,449.454C330.647,452.891 389.442,454.364 392.535,451.529C393.394,450.741 392.113,446.374 389.561,446.079C367.077,443.485 367.126,445.077 344.5,444.966ZM374.5,507.966C343.911,508.038 344.335,505.435 332.574,502.315C322.433,499.625 332.4,515.133 345.444,515.921C346.463,515.983 397.801,518.142 388.517,508.483C387.675,507.607 387.664,508.082 374.5,507.966ZM330.034,400.5C331.017,394.359 331.031,391.304 331.034,390.5C331.048,387.611 331.1,376.211 333.079,354.444C333.92,345.19 345.038,329.458 339.435,332.263C324.019,339.979 316.181,396.165 323.685,422.426C327.223,434.813 322.933,439.739 327.579,437.666C330.751,436.251 330.056,429.96 330.35,429.425C331.462,427.396 333.09,424.428 330.034,400.5ZM350.5,471.034C364.44,471.005 364.822,468.784 377.577,474.317C402.932,485.317 342.965,485.828 342.334,488.437C341.077,493.637 379.951,498.277 386.651,485.577C400.12,460.044 352.927,462.731 339.426,466.316C325.984,469.885 325.074,481.911 332.575,477.65C341.141,472.784 340.94,472.564 350.5,471.034ZM361.5,419.966C360.866,419.871 361.002,419.941 353.542,419.001C353.37,418.98 331.052,407.502 336.319,418.575C341.07,428.563 386.772,438.538 390.921,409.556C392.896,395.76 395.496,394.841 387.781,383.269C385.222,379.43 374.258,356.203 357.542,358.999C343.289,361.384 325.318,404.969 364.458,400.001C382.153,397.755 374.673,359.586 359.686,376.609C359.017,377.368 371.037,380.793 367.65,388.575C362.761,399.806 340.273,389.334 351.78,373.74C354.433,370.147 369.993,359.666 377.318,376.577C378.579,379.488 390.205,406.329 376.26,416.22C369.835,420.776 369.282,418.898 361.5,419.966ZM474.966,374.5C477.51,427.334 475.33,427.442 483.999,479.458C486.297,493.248 485.482,493.899 474.781,506.741C472.792,509.127 450.634,535.716 441.78,527.215C436.293,521.947 445.451,519.694 433.001,432.542C429.821,410.283 432.904,408.269 432.965,377.5C432.977,371.725 433.108,305.877 434.394,305.331C439.815,303.03 456.384,308.515 470.426,304.303C475.46,302.794 473.964,323.829 473.966,335.5C473.969,355.031 474.966,354.89 474.966,374.5ZM253.034,400.5C253.034,303.663 252.397,299.96 256.573,301.306C290.297,312.178 293.083,308.477 293.034,311.505C292.99,314.313 292.53,343.035 291.685,346.574C291.674,346.616 282.222,433.428 277.999,454.542C270.899,490.047 275.307,517.232 272.966,525.5C270.754,533.31 241.842,500.602 244.079,489.444C248.472,467.519 247.867,467.561 250.079,445.444C252.343,422.8 251.226,422.951 253.034,400.5ZM376.034,242.5C376.078,241.87 376.543,235.126 378.51,234.998C378.862,234.976 380.73,235.544 381.002,237.543C383.581,256.447 391.279,270.982 392.002,274.542C393.825,283.507 375.281,266.858 374.78,266.26C373.559,264.8 373.049,264.19 376.034,242.5Z"/>
        </g>
    </g>
</svg>
