<?xml version="1.0" encoding="UTF-8" standalone="no"?>
<!DOCTYPE svg PUBLIC "-//W3C//DTD SVG 1.1//EN" "http://www.w3.org/Graphics/SVG/1.1/DTD/svg11.dtd">
<svg width="100%" height="100%" viewBox="0 0 201 210" version="1.1" xmlns="http://www.w3.org/2000/svg" xmlns:xlink="http://www.w3.org/1999/xlink" xml:space="preserve" xmlns:serif="http://www.serif.com/" style="fill-rule:evenodd;clip-rule:evenodd;stroke-linejoin:round;stroke-miterlimit:2;">
    <g transform="matrix(1,0,0,1,-19.908969,-0)">
        <g id="unknown_marker" transform="matrix(0.611658,0,0,0.611658,18.32796,-1.21208)">
            <path d="M79.261,330.261C83.994,324.527 92.459,318.122 92.39,316.536C92.359,315.82 91.969,315.613 83.444,317.079C74.422,318.63 71.18,327.496 66.574,329.681C65.496,330.193 6.365,330.118 5.425,329.681C-2.209,326.134 7.837,317.85 8.976,316.5L11.261,314.261C31.71,289.28 33.831,290.158 44.556,291.079C51.513,291.676 57.268,300.024 63.251,293.297C66.851,289.25 61.777,291.241 56.392,290.923C54.238,290.796 54.494,289.152 62.331,277.397C72.64,261.934 75.237,264.793 84.602,258.668C96.556,250.851 104.363,259.348 109.542,260.001C124.038,261.827 121.084,266.552 125.685,280.426C127.581,286.144 112.077,288.959 111.25,293.431C111.071,294.4 111.567,295.078 123.556,293.921C137.117,292.612 137.094,293.549 149.397,299.702C157.794,303.902 157.708,303.871 163.783,311.217C167.949,316.255 167.91,310.946 171.78,305.74C175.148,301.212 196.899,292.747 198.556,293.079C216.266,296.628 216.872,291.935 215.648,291.308C207.53,287.151 201.642,288.726 205.651,280.577C210.817,270.073 205.785,265.467 216.574,262.684C243.727,255.68 244.14,253.355 250.603,257.331C271.609,270.257 271.807,270.694 283.336,292.605C286.412,298.45 294.611,289.778 308.262,299.738L311.739,303.261C328.261,323.691 332.358,323.94 328.537,328.537C326.761,330.672 257.288,331.277 253.74,328.22C251.434,326.231 249.64,323.679 247.259,321.781C241.785,317.416 238.499,320.837 234.462,319.832C219.037,315.993 259.741,335.178 250.26,343.217C246.692,346.243 107.141,345.513 87.458,343.999C79.982,343.424 65.8,346.718 76.976,332.5L79.261,330.261ZM169.5,2.034C179.709,3.557 217.054,3.781 242.331,41.603C263.093,72.669 252.531,113.394 236.22,131.26C206.05,164.303 188.204,154.642 187.001,192.458C186.323,213.772 132.075,228.78 140.999,170.542C148.493,121.635 217.512,117.859 198.682,69.423C185.488,35.483 119.7,48.417 127.921,89.444C131.756,108.581 82.332,136.973 76.001,87.542C73.261,66.15 87.538,44.791 89.669,41.603C118.743,-1.894 167.613,2.156 169.5,2.034ZM138.034,256.5C148.098,207.673 185.091,235.412 188.297,241.604C206.597,276.94 164.551,291.207 149.74,279.22C136.905,268.831 138.265,257.62 138.034,256.5Z"/>
        </g>
    </g>
</svg>
