<?xml version="1.0" encoding="UTF-8" standalone="no"?>
<!DOCTYPE svg PUBLIC "-//W3C//DTD SVG 1.1//EN" "http://www.w3.org/Graphics/SVG/1.1/DTD/svg11.dtd">
<svg width="100%" height="100%" viewBox="0 0 240 194" version="1.1" xmlns="http://www.w3.org/2000/svg" xmlns:xlink="http://www.w3.org/1999/xlink" xml:space="preserve" xmlns:serif="http://www.serif.com/" style="fill-rule:evenodd;clip-rule:evenodd;stroke-linejoin:round;stroke-miterlimit:2;">
    <g transform="matrix(1,0,0,1,-0,-8.493351)">
        <g id="walled_encampment" transform="matrix(0.298441,0,0,0.298441,-0.606029,8.027751)">
            <path d="M534.024,266.5C543.189,277.261 544.378,277.185 544.999,291.458C545.155,295.049 565.432,338.532 567.318,342.577C599.509,411.613 601.907,412.286 599.216,415.261C595.758,419.085 594.749,417.69 508.504,418.032C502.323,418.057 503.616,414.939 465.317,325.577C458.388,309.409 460.32,308.387 461.611,307.704C479.689,298.142 471.885,293.045 470.512,293.035C458.863,292.951 404.853,287.19 411.319,301.574C418.28,317.062 411.236,317.437 373.683,412.577C370.854,419.743 368.052,417.64 281.504,418.032C269.011,418.089 287.473,392.065 305.682,349.577C322.804,309.627 324.516,310.366 331.684,282.574C333.503,275.524 333.371,275.496 338.261,270.261L345.738,262.738C356.982,248.836 386.264,215.662 424.331,151.397C427.596,145.886 420.081,143.56 420.037,137.507C419.947,125.214 419.08,123.832 429.215,117.22C431.339,115.834 428.538,9.153 430.784,6.739C439.984,-3.151 445.28,1.875 445.998,15.457C446.323,21.597 465.106,14.649 488.603,29.331C521.728,50.032 526.329,35.816 557.577,47.35C558.414,47.658 565.909,54.038 550.542,55.999C526.327,59.089 515.698,84.131 470.55,73.004C455.506,69.297 446.095,77.128 446.086,77.406C445.986,80.59 444.871,115.97 446.785,117.22C468.533,131.409 448.627,146.203 450.706,150.401C454.863,158.799 480.031,196.45 482.669,200.397C498.558,224.167 525.8,257.449 529.739,262.261L534.024,266.5ZM11.738,567.262C10.459,565.732 2.002,559.099 2.034,543.5C2.05,535.939 1.994,375.839 2.079,374.444C2.305,370.697 2.305,370.697 18.317,330.423C24.858,313.973 29.328,337.366 35.683,354.423C47.66,386.571 37.669,389.017 44.332,400.602C49.612,409.784 53.702,394.213 54.317,392.423C63.046,367.051 69.871,398.386 76.318,415.577C83.824,435.594 93.591,436.827 82.781,449.741C78.029,455.416 78.966,456.238 78.966,516.5C78.966,595.098 79.715,596.068 75.261,600.216C72.632,602.665 46.741,598.735 40.318,584.574C39.964,583.793 39.06,438.172 38.981,425.441C38.961,422.232 33.654,424.4 32.477,425.48C31.167,426.681 32.609,569.319 31.681,571.574C27.139,582.615 23.294,576.842 14.023,569.5L11.738,567.262ZM192.024,169.5C192.793,170.332 201.355,179.601 191.575,183.65C190.231,184.206 172.834,182.396 172.079,186.439C170.105,197.009 171.762,213.148 171.999,215.457C172.466,220.013 176.828,217.816 176.921,222.444C177.518,251.95 178.607,255.287 168.574,257.685C161.254,259.434 161.151,257.449 74.504,257.032C65.44,256.989 67.442,235.533 68.998,220.543C69.241,218.208 70.867,218.953 70.92,216.56C71.601,186.154 71.953,185.358 69.579,184.351C60.496,180.495 59.593,186.591 50.395,182.664C42.822,179.431 50.588,170.993 51.261,170.261L54.738,166.738C55.947,165.798 55.573,165.466 69.261,154.261L72.738,150.738C97.409,131.535 117.965,103.041 129.26,112.78C137.216,119.641 144.911,126.567 146.26,127.78C164.861,144.522 164.813,144.513 165.739,145.261L168.024,147.5L170.024,149.5C177.772,156.226 177.328,156.366 185.26,162.78C186.169,163.516 186.83,164.526 187.739,165.261L190.024,167.5L192.024,169.5ZM142.5,218.034C152.636,217.156 148.928,212.791 148.965,202.5C148.97,201.094 149.028,185.228 146.604,185.082C104.226,182.521 94.174,183.727 94.079,188.444C93.538,215.251 93.154,215.589 94.782,217.218C95.546,217.981 95.735,217.873 142.5,218.034ZM485.342,644.5C471.522,650.824 366.614,647.47 339.444,646.921C336.988,646.872 332.953,643.318 332.968,638.496C333.158,574.515 332.974,485.091 332.999,484.542C333.629,470.566 365.759,473.657 372.458,474.999C383.095,477.129 381.971,487.703 382.349,488.576C386.201,497.473 388.897,475.28 397.444,475.079C425.154,474.426 428.099,473.543 434.683,487.423C438.642,495.77 437.553,483.461 445.74,476.78C449.548,473.674 488.103,468.656 488.032,486.504C487.447,633.906 489.757,634.469 485.342,644.5ZM721.5,394.966C711.698,394.204 710.277,381.642 698.458,391.456C692.536,396.374 690.805,383.085 679.682,353.423C670.501,328.94 671.931,323.433 655.543,323.999C646.167,324.322 632.613,397.658 621.556,398.921C614.027,399.782 615.371,396.018 595.706,356.397C585.875,336.591 597.889,331.017 596.921,323.446C596.682,321.579 593.151,319.196 593.079,317.56C592.121,295.698 609.538,301.568 611.22,299.215C615.89,292.68 647.139,243.069 654.216,235.261C657.327,231.829 647.902,180.798 667.739,199.216C668.106,199.556 677.769,200.988 686.26,207.78C692.176,212.513 704.994,217.796 689.574,224.682C689.352,224.781 660.174,217.714 667.319,234.574C667.371,234.699 710.262,298.77 711.445,298.921C711.638,298.946 722.66,294.493 730.682,311.426C732.811,315.921 727.123,321.792 726.465,322.471C724.469,324.532 743.55,366.234 741.651,369.575C730.854,388.573 734.5,394.238 721.5,394.966ZM177.035,292.5C184.995,399.921 190.271,409.516 180.426,405.682C173.045,402.807 172.746,401.469 162.574,405.682C154.095,409.194 125.458,362.228 121.712,365.76C120.015,367.36 119.338,367.998 103.781,388.741C80.009,420.435 82.979,373.955 70.577,369.318C60.236,365.451 63.273,362.451 64.001,351.458C64.465,344.439 64.332,344.628 64.921,337.556C65.207,334.118 68.146,298.856 68.002,294.543C67.877,290.818 54.361,293.655 54.079,285.556C53.942,281.635 50.505,265.402 68.426,269.684C71.148,270.335 143.867,269.73 177.496,270.032C186.678,270.114 190.835,267.206 190.963,276.493C191.141,289.357 189.725,291.374 177.035,292.5ZM102.5,291.966C87.052,293.649 106.683,307.694 119.331,326.603C123.43,332.73 126.094,325.849 131.78,318.74C133.951,316.028 155.732,292.073 144.512,292.035C124.953,291.97 125.112,292.119 105.5,292.035C104.5,292.03 103.5,291.97 102.5,291.966ZM155.034,344.5C154.624,336.285 153.547,336.537 152.933,328.388C152.461,322.121 136.096,346.168 136.096,347.5C136.096,350.347 155.144,371.684 155.435,371.737C157.578,372.131 158.941,370.687 155.034,344.5ZM90.966,344.5C90.658,346.564 87.386,368.497 89.454,370.548C91.107,372.189 110.864,348.795 108.217,345.738C107.252,344.623 97.176,331.023 96.224,329.737C91.87,323.859 93.164,331.492 90.966,344.5ZM805.966,503.5C805.966,541.902 808.795,553.808 795.22,570.26C788.044,578.955 779.058,578.01 779.037,571.507C778.747,481.305 780.536,481.337 778.079,440.556C777.168,425.436 778.359,423.599 775.537,423.996C769.858,424.795 771.144,483.292 771.035,568.5C771.019,580.994 774.488,582.726 765.26,591.22C764.786,591.656 743.391,602.615 739.739,599.216C735.285,595.071 736.034,594.101 736.034,515.5C736.034,455.432 736.809,454.705 732.784,450.26C724.514,441.127 750.311,381.096 752.499,381.095C757.878,381.093 768.251,421.108 768.928,406.565C769.543,393.365 764.492,388.808 774.315,354.426C782.918,324.319 786.884,320.926 788.65,325.419C808.677,376.37 805.951,377.152 805.966,385.5L805.966,503.5ZM551.966,490.5C551.966,636.123 552.076,636.352 551.216,637.261C542.779,646.184 531.817,643.408 523.542,643.999C509.9,644.974 508.787,648.34 502.947,642.5C497.696,637.249 500.459,635.837 499.968,484.504C499.962,482.763 522.606,432.407 527.575,434.345C531.263,435.783 551.891,480.121 551.921,480.444C552.233,483.781 551.654,487.162 551.966,490.5ZM319.966,490.5C319.966,638.817 320.214,639.308 318.261,641.262C312.322,647.201 311.149,644.931 276.542,643.001C267.599,642.503 269.034,637.683 269.034,543.5L269.034,491.5C268.981,472.472 272.688,473.446 286.297,446.397C286.866,445.266 294.718,429.662 297.665,435.394C298.641,437.294 313.353,466.703 315.298,470.603C321.413,482.867 319.267,483.38 319.966,490.5ZM206.034,491.5C206.036,476.324 204.123,475.819 211.331,462.397C218.881,448.341 218.784,448.483 226.331,434.397C233.843,420.379 237.207,434.427 256.682,475.426C257.018,476.135 256.966,476.17 256.966,592.5C256.966,629.174 261.997,640.607 238.444,638.921C212.311,637.051 210.399,635.022 208.739,633.262C205.624,629.958 206.034,629.251 206.034,491.5ZM613.966,490.5C613.966,628.14 614.23,628.53 612.22,631.26C608.37,636.485 564.08,645.033 564.037,631.507C563.547,478.922 561.383,477.917 567.331,468.397C579.035,449.669 585.946,419.337 593.297,433.604C594.576,436.086 608.571,463.245 609.332,464.602C616.082,476.64 613.929,477.25 613.966,490.5ZM146.034,491.5C146.034,463.149 144.77,462.615 151.331,450.397C158.54,436.975 158.046,436.994 165.331,423.397C173.144,408.819 175.851,424.566 188.294,449.603C199.96,473.075 193.938,487.548 193.968,492.504C194.089,512.853 195.038,512.742 195.032,514.504C194.953,541.286 193.953,541.183 193.968,543.504C194.479,620.391 196.655,621.243 192.22,627.26C186.431,635.11 151.633,627.177 147.78,622.26C145.759,619.679 146.034,619.26 146.034,491.5ZM672.966,490.5C672.966,617.639 673.729,619.19 668.26,623.22C666.526,624.497 634.847,633.067 628.74,628.22C624.429,624.797 625.034,623.62 625.034,504.5C625.034,472.951 621.187,471.841 635.297,443.397C641.002,431.897 647.774,402.745 656.318,427.577C656.424,427.887 672.131,459.254 672.682,460.426C673.101,461.318 672.966,474.399 672.966,490.5ZM134.966,491.5C134.966,611.787 135.237,612.284 133.261,614.262C125.419,622.106 123.112,619.046 99.574,612.316C86.905,608.693 89.965,603.995 89.965,550.5C89.965,518.976 89.137,519.158 89.037,487.507C88.906,445.993 87.782,445.223 95.668,432.602C108.506,412.059 110.16,387.209 119.683,409.423C137.572,451.151 136.984,453.513 136.005,457.451C135.06,461.249 134.974,488.775 134.966,491.5ZM725.966,529.5C725.966,603.041 726.134,603.29 725.216,604.261C716.53,613.45 687.833,621.326 684.35,612.577C680.932,603.993 684.755,463.813 682.312,455.572C681.768,453.736 699.511,403.002 705.461,403C710.24,402.998 714.603,422.697 726.669,442.397C730.308,448.34 726.23,449.013 725.966,529.5ZM197.034,355.5C195.841,348.536 196.558,348.563 195.078,341.55C194.508,338.848 216.755,297.815 217.739,296.739C223.926,289.972 237.661,332.26 241.78,336.215C250.578,344.662 249.761,333.879 270.332,296.397C274.842,288.18 280.615,303.362 291.682,329.426C293.824,334.472 262.081,394.699 258.683,404.577C253.297,420.231 239.46,412.064 218.426,417.316C194.82,423.21 204.673,406.709 197.034,355.5ZM411.5,417.966C399.482,417.034 408.379,407.736 416.923,373.561C418.574,366.954 434.162,317.167 435.332,315.397C437.621,311.934 439.299,312.551 440.683,316.423C451.946,347.951 466.609,399.177 468.685,406.426C471.537,416.39 469.405,417.297 468.579,417.649C467.661,418.039 465.556,417.966 411.5,417.966ZM650.5,398.966C639.45,398.109 644.996,392.179 654.684,354.574C654.948,353.551 658.893,338.236 662.225,343.741C667.374,352.248 676.044,387.57 676.996,391.451C679.624,402.16 660.691,398.946 650.5,398.966Z"/>
        </g>
    </g>
</svg>
